<svg width="28" height="28" viewBox="0 0 28 28" fill="none" xmlns="http://www.w3.org/2000/svg">
<path d="M13.9999 27.7143C21.5741 27.7143 27.7142 21.5742 27.7142 14C27.7142 6.4258 21.5741 0.285706 13.9999 0.285706C6.42574 0.285706 0.285645 6.4258 0.285645 14C0.285645 21.5742 6.42574 27.7143 13.9999 27.7143Z" fill="#212225"/>
<path d="M13.9998 26.8636C21.1042 26.8636 26.8634 21.1044 26.8634 14C26.8634 6.89569 21.1042 1.13647 13.9998 1.13647C6.89545 1.13647 1.13623 6.89569 1.13623 14C1.13623 21.1044 6.89545 26.8636 13.9998 26.8636Z" fill="#212225"/>
<path d="M14 25.1643C20.1658 25.1643 25.1643 20.1659 25.1643 14C25.1643 7.83418 20.1658 2.83575 14 2.83575C7.83411 2.83575 2.83569 7.83418 2.83569 14C2.83569 20.1659 7.83411 25.1643 14 25.1643Z" fill="#406A80"/>
<path d="M14.0004 24.9496C7.96264 24.9496 3.05078 20.0375 3.05078 14C3.05078 7.96252 7.96264 3.05066 14.0004 3.05066C20.0381 3.05066 24.9499 7.96252 24.9499 14C24.9499 20.0375 20.0381 24.9496 14.0004 24.9496Z" fill="#47748C"/>
<path d="M14.0002 24.7353C8.08075 24.7353 3.26489 19.9192 3.26489 14C3.26489 8.08081 8.08075 3.26495 14.0002 3.26495C19.9196 3.26495 24.7355 8.08081 24.7355 14C24.7355 19.9192 19.9196 24.7353 14.0002 24.7353Z" fill="#3A5F73"/>
<path d="M14.0003 24.3067C8.31725 24.3067 3.6936 19.6833 3.6936 14C3.6936 8.31691 8.31703 3.69348 14.0003 3.69348C19.6836 3.69348 24.307 8.31691 24.307 14C24.307 19.6831 19.6834 24.3067 14.0003 24.3067Z" fill="#406A80"/>
<path d="M14.0004 24.0924C8.43517 24.0924 3.90796 19.5648 3.90796 14C3.90796 8.4352 8.43517 3.90778 14.0004 3.90778C19.5656 3.90778 24.0928 8.4352 24.0928 14C24.0928 19.5648 19.5656 24.0924 14.0004 24.0924Z" fill="#47748C"/>
<path d="M14.0004 23.4496C8.79021 23.4496 4.55078 19.2104 4.55078 14C4.55078 8.78966 8.78957 4.55066 14.0004 4.55066C19.2111 4.55066 23.4499 8.78966 23.4499 14C23.4499 19.2102 19.2105 23.4496 14.0004 23.4496Z" fill="#3A5F73"/>
<path d="M13.9996 21.345C9.94961 21.345 6.65454 18.0499 6.65454 13.9999C6.65454 9.94973 9.94961 6.65466 13.9996 6.65466C18.0496 6.65466 21.3447 9.94973 21.3447 13.9999C21.3447 18.0499 18.0496 21.345 13.9996 21.345Z" fill="#1E2C33"/>
<path d="M13.9998 21.1314C17.9384 21.1314 21.1313 17.9386 21.1313 14C21.1313 10.0614 17.9384 6.86859 13.9998 6.86859C10.0613 6.86859 6.86841 10.0614 6.86841 14C6.86841 17.9386 10.0613 21.1314 13.9998 21.1314Z" fill="#263740"/>
<path d="M13.9995 20.9165C10.1857 20.9165 7.08301 17.8138 7.08301 14C7.08301 10.1861 10.1857 7.08325 13.9995 7.08325C17.8134 7.08325 20.916 10.1861 20.916 14C20.916 17.8138 17.8134 20.9165 13.9995 20.9165Z" fill="#2D424D"/>
<path d="M13.9996 20.4879C10.4221 20.4879 7.51172 17.5775 7.51172 14C7.51172 10.4225 10.4221 7.51184 13.9996 7.51184C17.5771 7.51184 20.4876 10.4225 20.4876 14C20.4876 17.5775 17.5771 20.4879 13.9996 20.4879Z" fill="#253740"/>
<path d="M14.0005 19.231C16.8894 19.231 19.2314 16.889 19.2314 14C19.2314 11.1111 16.8894 8.7691 14.0005 8.7691C11.1115 8.7691 8.76953 11.1111 8.76953 14C8.76953 16.889 11.1115 19.231 14.0005 19.231Z" fill="#212225"/>
<path d="M14.0003 19.0167C11.2341 19.0167 8.98364 16.7663 8.98364 14C8.98364 11.2338 11.2341 8.9834 14.0003 8.9834C16.7665 8.9834 19.0169 11.2338 19.0169 14C19.0169 16.7663 16.7665 19.0167 14.0003 19.0167Z" fill="#212225"/>
<path d="M14.0004 18.8023C11.3524 18.8023 9.198 16.6479 9.198 14C9.198 11.3521 11.3524 9.19763 14.0004 9.19763C16.6483 9.19763 18.8027 11.3521 18.8027 14C18.8027 16.6479 16.6483 18.8023 14.0004 18.8023Z" fill="#212225"/>
<path d="M14.0003 18.1595C11.7068 18.1595 9.84082 16.2935 9.84082 14C9.84082 11.7065 11.7068 9.84052 14.0003 9.84052C16.2938 9.84052 18.1598 11.7065 18.1598 14C18.1598 16.2935 16.2938 18.1595 14.0003 18.1595Z" fill="#4D4D4D"/>
<path d="M14.0005 17.731C11.9429 17.731 10.2695 16.057 10.2695 14C10.2695 11.9429 11.9435 10.2691 14.0005 10.2691C16.0574 10.2691 17.7314 11.9429 17.7314 14C17.7314 16.0572 16.058 17.731 14.0005 17.731Z" fill="#212225"/>
<path d="M13.9999 16.501C15.3813 16.501 16.5011 15.3812 16.5011 13.9999C16.5011 12.6185 15.3813 11.4987 13.9999 11.4987C12.6186 11.4987 11.4988 12.6185 11.4988 13.9999C11.4988 15.3812 12.6186 16.501 13.9999 16.501Z" fill="#212225"/>
<path d="M14.0001 15.8845C15.041 15.8845 15.8848 15.0407 15.8848 13.9999C15.8848 12.959 15.041 12.1152 14.0001 12.1152C12.9593 12.1152 12.1155 12.959 12.1155 13.9999C12.1155 15.0407 12.9593 15.8845 14.0001 15.8845Z" fill="#134D44"/>
<path d="M14 14.8707C14.4809 14.8707 14.8707 14.4809 14.8707 14.0001C14.8707 13.5193 14.4809 13.1295 14 13.1295C13.5192 13.1295 13.1294 13.5193 13.1294 14.0001C13.1294 14.4809 13.5192 14.8707 14 14.8707Z" fill="#198058"/>
<path d="M13.1294 14C13.1294 14.4809 13.5194 14.8706 14.0003 14.8706V14H13.1294Z" fill="#70CCBD"/>
<path d="M14.8709 14.0001C14.8709 13.5192 14.4809 13.1295 14 13.1295V14.0001H14.8709Z" fill="#70CCBD"/>
</svg>
