<svg width="22" height="28" viewBox="0 0 22 28" fill="none" xmlns="http://www.w3.org/2000/svg">
<path d="M5.70929 6.63334C5.59088 4.65705 6.14102 2.97786 7.55757 1.68289C8.50665 0.798522 9.73334 0.319908 10.9982 0.34048C12.5824 0.34748 13.9136 0.98602 14.9698 2.2351C16.0259 3.48418 16.3893 4.96738 16.2885 6.63411C16.9563 6.63411 17.5881 6.62478 18.2199 6.63411C18.8653 6.64738 19.4831 6.91283 19.9544 7.37929C20.4256 7.84575 20.7169 8.48018 20.772 9.16028C20.8206 9.80971 20.8456 10.4607 20.8735 11.1109C21.0172 14.3059 21.1594 17.5007 21.3001 20.6952C21.3692 22.2585 21.4472 23.8218 21.498 25.3859C21.5553 27.0612 20.3947 27.6556 18.8075 27.6572C13.6023 27.6624 8.39749 27.6624 3.19319 27.6572C1.60822 27.6572 0.43512 27.0565 0.502785 25.3851C0.636643 22.0734 0.793305 18.7633 0.938931 15.4516C1.02057 13.6067 1.09633 11.7611 1.18238 9.91704C1.18834 9.52842 1.22525 9.14102 1.2927 8.75895C1.42467 8.16262 1.74095 7.62986 2.19148 7.245C2.64201 6.86014 3.20104 6.64517 3.78011 6.63411C4.40306 6.62478 5.02823 6.63334 5.70929 6.63334ZM11.0835 25.8524C13.6768 25.8524 15.7895 25.8524 18.8075 25.8524C19.7313 25.8524 19.7468 24.7306 19.7313 24.0999C19.724 23.7794 19.746 24.2141 19.7313 23.8937C19.5916 20.7469 19.4165 18.1921 19.2753 15.0464C19.1922 13.1797 19.1143 11.3131 19.0223 9.45272C18.9892 8.78229 18.6362 8.45874 18.0022 8.46185C16.6602 8.46807 15.3177 8.47352 13.9747 8.47818L3.95957 8.50696C3.35279 8.50696 3.013 8.82973 2.97549 9.46905C2.92989 10.2351 2.90709 11.0036 2.87252 11.7704C2.67149 16.2954 2.57369 19.3682 2.37266 23.8937C2.33883 24.6582 2.19148 25.8524 3.19319 25.8524H11.0835ZM14.4983 6.61778C14.6136 5.86838 14.5159 5.09968 14.2176 4.40906C13.9193 3.71843 13.4339 3.13696 12.8229 2.73831C12.2214 2.3549 11.5254 2.16993 10.8239 2.20706C10.1225 2.24419 9.44742 2.50174 8.88512 2.94675C7.79071 3.8194 7.29867 5.1867 7.51049 6.61778H14.4983Z" fill="#6D7784"/>
</svg>
