<svg width="30" height="26" viewBox="0 0 30 26" fill="none" xmlns="http://www.w3.org/2000/svg">
<path d="M15.0004 25.5626C14.8036 25.5626 14.6068 25.4935 14.4489 25.3554C13.193 24.2564 12.0135 23.2534 10.8729 22.2835C4.75122 17.0777 0.707031 13.6386 0.707031 8.61794C0.707031 4.12262 3.91198 0.4375 8.30038 0.4375C10.6657 0.4375 12.7207 1.57326 14.2432 3.72207C14.5431 4.14529 14.7938 4.568 15.0004 4.9609C15.2069 4.56806 15.4577 4.14529 15.7576 3.72207C17.2801 1.57326 19.3351 0.4375 21.7004 0.4375C26.0894 0.4375 29.2938 4.12335 29.2938 8.61794C29.2938 13.6386 25.2496 17.0777 19.128 22.2833C17.9874 23.2533 16.8079 24.2563 15.5519 25.3554C15.394 25.4935 15.1972 25.5626 15.0004 25.5626ZM8.30038 2.1125C4.92636 2.1125 2.38203 4.90926 2.38203 8.61794C2.38203 12.8642 6.19155 16.1038 11.9579 21.0074C12.935 21.8383 13.9405 22.6933 15.0004 23.614C16.0603 22.6933 17.0658 21.8382 18.0429 21.0073C23.8093 16.1038 27.6188 12.8642 27.6188 8.61794C27.6188 4.90926 25.0744 2.1125 21.7004 2.1125C19.8901 2.1125 18.3596 2.96703 17.1513 4.65242C16.1983 5.98182 15.8114 7.34695 15.8076 7.36062C15.7067 7.72287 15.3765 7.97423 15.0006 7.97423C15.0001 7.97423 14.9995 7.97423 14.999 7.97423C14.6229 7.97351 14.2933 7.72298 14.1932 7.36062C14.1894 7.347 13.8024 5.98182 12.8494 4.65242C11.6412 2.96703 10.1106 2.1125 8.30038 2.1125Z" fill="#6D7784"/>
</svg>
