<svg width="28" height="28" viewBox="0 0 28 28" fill="none" xmlns="http://www.w3.org/2000/svg">
<path d="M14 0.875977C12.7021 0.875977 11.4333 1.26086 10.3541 1.98196C9.27488 2.70305 8.43374 3.72798 7.93704 4.92712C7.44034 6.12626 7.31038 7.44576 7.5636 8.71876C7.81682 9.99176 8.44183 11.1611 9.35961 12.0789C10.2774 12.9966 11.4467 13.6217 12.7197 13.8749C13.9927 14.1281 15.3122 13.9981 16.5114 13.5014C17.7105 13.0047 18.7354 12.1636 19.4565 11.0844C20.1776 10.0052 20.5625 8.73642 20.5625 7.43848C20.5625 5.69799 19.8711 4.0288 18.6404 2.79809C17.4097 1.56738 15.7405 0.875977 14 0.875977ZM14 12.126C13.0729 12.126 12.1666 11.8511 11.3958 11.336C10.6249 10.8209 10.0241 10.0888 9.66932 9.2323C9.31453 8.37578 9.2217 7.43328 9.40257 6.52399C9.58344 5.6147 10.0299 4.77947 10.6854 4.12391C11.341 3.46835 12.1762 3.02191 13.0855 2.84105C13.9948 2.66018 14.9373 2.75301 15.7938 3.10779C16.6504 3.46258 17.3824 4.06339 17.8975 4.83424C18.4126 5.6051 18.6875 6.51138 18.6875 7.43848C18.6875 8.05405 18.5663 8.66359 18.3307 9.2323C18.0951 9.80102 17.7498 10.3178 17.3146 10.753C16.8793 11.1883 16.3625 11.5336 15.7938 11.7692C15.2251 12.0047 14.6156 12.126 14 12.126Z" fill="#6D7784"/>
<path d="M18.8469 15.8749H9.15312C6.95839 15.8774 4.85426 16.7504 3.30235 18.3023C1.75044 19.8542 0.877481 21.9583 0.875 24.1531C0.875 24.9413 1.18811 25.6972 1.74544 26.2545C2.30278 26.8118 3.05868 27.1249 3.84688 27.1249H24.1531C24.9413 27.1249 25.6972 26.8118 26.2546 26.2545C26.8119 25.6972 27.125 24.9413 27.125 24.1531C27.1225 21.9583 26.2496 19.8542 24.6977 18.3023C23.1457 16.7504 21.0416 15.8774 18.8469 15.8749ZM24.1531 25.2499H3.84688C3.55597 25.2499 3.27697 25.1344 3.07127 24.9287C2.86556 24.723 2.75 24.444 2.75 24.1531C2.75 22.4548 3.42461 20.8262 4.62543 19.6254C5.82625 18.4246 7.45491 17.7499 9.15312 17.7499H18.8469C20.5451 17.7499 22.1737 18.4246 23.3746 19.6254C24.5754 20.8262 25.25 22.4548 25.25 24.1531C25.25 24.444 25.1344 24.723 24.9287 24.9287C24.723 25.1344 24.444 25.2499 24.1531 25.2499Z" fill="#6D7784"/>
</svg>
