<svg width="158" height="54" viewBox="0 0 158 54" fill="none" xmlns="http://www.w3.org/2000/svg">
<g clip-path="url(#clip0_3_3537)">
<path d="M145.418 5.34291e-05H12.5892C12.1051 5.34291e-05 11.6267 5.34292e-05 11.1438 0.00275342C10.7396 0.00545341 10.3386 0.0132969 9.93045 0.0198984C9.04384 0.0305658 8.15932 0.110316 7.28457 0.258456C6.41105 0.409821 5.5649 0.695187 4.77472 1.1049C3.98551 1.51809 3.26439 2.05497 2.63752 2.69609C2.00735 3.3354 1.48206 4.07436 1.08184 4.88455C0.680515 5.69313 0.402236 6.5596 0.256613 7.45403C0.109605 8.34733 0.0304982 9.25093 0.0200035 10.1567C0.00775053 10.5706 0.00645657 10.9859 0 11.3999V42.604C0.00645657 43.0232 0.00775053 43.4293 0.0200035 43.8486C0.0305015 44.7543 0.109608 45.6579 0.256613 46.5511C0.401834 47.4461 0.68013 48.3131 1.08184 49.1219C1.48188 49.9295 2.00724 50.6655 2.63752 51.3012C3.26202 51.9452 3.9836 52.4825 4.77472 52.8925C5.56489 53.3033 6.41096 53.5904 7.28457 53.7441C8.15947 53.891 9.0439 53.9708 9.93045 53.9827C10.3386 53.9919 10.7396 53.9972 11.1438 53.9972C11.6267 53.9999 12.1051 53.9999 12.5892 53.9999H145.418C145.892 53.9999 146.375 53.9999 146.849 53.9972C147.251 53.9972 147.664 53.9919 148.066 53.9827C148.951 53.9714 149.834 53.8916 150.707 53.7441C151.584 53.5893 152.433 53.3023 153.227 52.8925C154.017 52.4822 154.738 51.945 155.362 51.3012C155.991 50.663 156.517 49.9276 156.922 49.1219C157.321 48.3125 157.596 47.4456 157.739 46.5511C157.887 45.6578 157.969 44.7544 157.985 43.8486C157.99 43.4293 157.99 43.0232 157.99 42.604C158 42.1136 158 41.6258 158 41.1274V12.8738C158 12.3794 158 11.889 157.99 11.3999C157.99 10.9859 157.99 10.5706 157.985 10.1567C157.969 9.25079 157.887 8.34739 157.739 7.45397C157.596 6.56006 157.32 5.69366 156.922 4.8845C156.107 3.26056 154.815 1.93868 153.227 1.10478C152.433 0.696067 151.583 0.410777 150.707 0.258335C149.834 0.109542 148.951 0.0297638 148.066 0.0197094C147.664 0.0131214 147.251 0.00521041 146.849 0.00257792C146.375 -0.00012207 145.892 -0.00012207 145.418 -0.00012207V5.34291e-05Z" fill="#A6A6A6"/>
<path d="M11.0172 52.9973C10.6141 52.9973 10.2207 52.992 9.82083 52.9827C8.99237 52.9716 8.16585 52.8975 7.34804 52.761C6.58548 52.6261 5.84676 52.375 5.15625 52.0162C4.47208 51.6603 3.84805 51.1937 3.30809 50.6342C2.76031 50.0813 2.30425 49.44 1.958 48.7358C1.60794 48.027 1.36567 47.2673 1.23964 46.483C1.10354 45.6403 1.0299 44.7883 1.01937 43.9341C1.01098 43.6474 1 42.6929 1 42.6929V11.2898C1 11.2898 1.01169 10.3499 1.01943 10.0738C1.02952 9.22098 1.10273 8.37023 1.23842 7.52886C1.36468 6.74247 1.60714 5.98052 1.95739 5.26939C2.30237 4.56565 2.75589 3.92389 3.30038 3.36901C3.84425 2.80885 4.47027 2.33984 5.15561 1.97906C5.84453 1.62138 6.58185 1.37211 7.34287 1.23962C8.16336 1.10173 8.99275 1.02718 9.82408 1.0166L11.0178 1H146.976L148.184 1.01726C149.007 1.02732 149.829 1.10121 150.642 1.23829C151.411 1.37244 152.156 1.62344 152.853 1.98304C154.226 2.71011 155.343 3.86041 156.048 5.27271C156.392 5.97893 156.631 6.73466 156.756 7.51426C156.893 8.36253 156.97 9.21997 156.986 10.0797C156.99 10.4647 156.99 10.8783 156.99 11.2898C157 11.7996 157 12.2848 157 12.774V41.2246C157 41.7184 157 42.2003 156.99 42.6862C156.99 43.1283 156.99 43.5332 156.984 43.95C156.969 44.7945 156.893 45.6366 156.758 46.4697C156.635 47.2596 156.394 48.0253 156.044 48.7399C155.695 49.4365 155.242 50.0722 154.7 50.6236C154.16 51.1861 153.535 51.6555 152.849 52.0136C152.154 52.3752 151.41 52.6272 150.642 52.761C149.825 52.8983 148.998 52.9724 148.169 52.9827C147.782 52.992 147.376 52.9973 146.982 52.9973L145.548 53L11.0172 52.9973Z" fill="#212225"/>
<path d="M32.7019 26.8998C32.7161 25.7939 33.0088 24.7095 33.5528 23.7476C34.0969 22.7857 34.8745 21.9776 35.8134 21.3983C35.2169 20.5435 34.4301 19.84 33.5153 19.3437C32.6005 18.8474 31.583 18.572 30.5436 18.5394C28.3264 18.3058 26.1769 19.8708 25.0471 19.8708C23.8954 19.8708 22.1558 18.5626 20.2826 18.6013C19.0709 18.6405 17.89 18.9941 16.855 19.6275C15.82 20.261 14.9662 21.1526 14.3767 22.2157C11.8231 26.6523 13.7278 33.1727 16.174 36.759C17.3978 38.5151 18.8281 40.4767 20.6997 40.4071C22.5311 40.3309 23.2151 39.2352 25.4258 39.2352C27.6159 39.2352 28.2577 40.4071 30.1672 40.3629C32.1324 40.3309 33.3706 38.599 34.5515 36.8263C35.4308 35.575 36.1075 34.1921 36.5563 32.7287C35.4146 32.2441 34.4403 31.433 33.7549 30.3964C33.0694 29.3599 32.7032 28.1438 32.7019 26.8998Z" fill="white"/>
<path d="M29.0913 16.1798C30.1628 14.8889 30.6907 13.2298 30.5629 11.5547C28.9259 11.7272 27.4137 12.5124 26.3277 13.7537C25.7967 14.3601 25.3901 15.0656 25.131 15.8298C24.8719 16.594 24.7654 17.402 24.8176 18.2075C25.6364 18.216 26.4465 18.0379 27.1867 17.6866C27.927 17.3354 28.5782 16.8202 29.0913 16.1798Z" fill="white"/>
<path d="M55.851 35.9597H49.6012L48.1003 40.407H45.4531L51.3728 23.9531H54.1232L60.0429 40.407H57.3506L55.851 35.9597ZM50.2485 33.9075H55.2025L52.7603 26.6898H52.692L50.2485 33.9075Z" fill="white"/>
<path d="M72.823 34.4077C72.823 38.1356 70.8347 40.5307 67.8343 40.5307C67.0742 40.5706 66.3183 40.3949 65.6531 40.0237C64.9879 39.6525 64.4403 39.1008 64.073 38.4319H64.0163V44.3737H61.5625V28.409H63.9376V30.4042H63.9828C64.3669 29.7385 64.9238 29.1897 65.594 28.8162C66.2643 28.4428 67.0229 28.2587 67.7891 28.2835C70.8231 28.2835 72.823 30.6902 72.823 34.4077ZM70.3009 34.4077C70.3009 31.979 69.0502 30.3822 67.1418 30.3822C65.267 30.3822 64.006 32.0126 64.006 34.4077C64.006 36.8248 65.267 38.4435 67.1418 38.4435C69.0502 38.4435 70.3009 36.8584 70.3009 34.4077Z" fill="white"/>
<path d="M85.9871 34.4077C85.9871 38.1356 83.9988 40.5306 80.9983 40.5306C80.2383 40.5705 79.4823 40.3948 78.8172 40.0237C78.152 39.6525 77.6044 39.1008 77.2371 38.4318H77.1803V44.3737H74.7266V28.409H77.1017V30.4042H77.1468C77.531 29.7385 78.0878 29.1897 78.7581 28.8162C79.4283 28.4428 80.1869 28.2587 80.9532 28.2835C83.9872 28.2835 85.9871 30.6902 85.9871 34.4077ZM83.465 34.4077C83.465 31.979 82.2142 30.3822 80.3059 30.3822C78.4311 30.3822 77.17 32.0126 77.17 34.4077C77.17 36.8248 78.4311 38.4435 80.3059 38.4435C82.2142 38.4435 83.465 36.8584 83.465 34.4077H83.465Z" fill="white"/>
<path d="M94.6837 35.8234C94.8655 37.4551 96.4451 38.5264 98.6035 38.5264C100.672 38.5264 102.16 37.455 102.16 35.9838C102.16 34.7067 101.262 33.942 99.1373 33.4179L97.0124 32.9042C94.0016 32.1744 92.6039 30.7615 92.6039 28.4686C92.6039 25.6297 95.0692 23.6797 98.57 23.6797C102.035 23.6797 104.41 25.6297 104.49 28.4686H102.013C101.864 26.8266 100.512 25.8354 98.5352 25.8354C96.5585 25.8354 95.2059 26.8382 95.2059 28.2978C95.2059 29.461 96.0698 30.1455 98.1831 30.6695L99.9896 31.1147C103.354 31.913 104.751 33.2691 104.751 35.6758C104.751 38.7541 102.308 40.6821 98.4217 40.6821C94.7855 40.6821 92.3305 38.7994 92.1719 35.8233L94.6837 35.8234Z" fill="white"/>
<path d="M110.047 25.5781V28.417H112.32V30.367H110.047V36.9804C110.047 38.0078 110.502 38.4865 111.502 38.4865C111.772 38.4818 112.041 38.4628 112.309 38.4295V40.3679C111.86 40.4521 111.403 40.4903 110.946 40.4817C108.526 40.4817 107.582 39.5695 107.582 37.243V30.367H105.844V28.417H107.582V25.5781H110.047Z" fill="white"/>
<path d="M113.633 34.4119C113.633 30.6374 115.848 28.2656 119.302 28.2656C122.768 28.2656 124.973 30.6374 124.973 34.4119C124.973 38.1967 122.78 40.5581 119.302 40.5581C115.826 40.5581 113.633 38.1966 113.633 34.4119ZM122.473 34.4119C122.473 31.8227 121.291 30.2945 119.302 30.2945C117.314 30.2945 116.133 31.8343 116.133 34.4119C116.133 37.0114 117.314 38.5279 119.302 38.5279C121.291 38.5279 122.473 37.0114 122.473 34.4119H122.473Z" fill="white"/>
<path d="M127 28.4089H129.34V30.4507H129.397C129.555 29.813 129.928 29.2494 130.451 28.8547C130.975 28.46 131.618 28.2583 132.272 28.2833C132.555 28.2823 132.837 28.3132 133.113 28.3752V30.6784C132.756 30.569 132.384 30.5187 132.011 30.5296C131.654 30.5151 131.299 30.5782 130.969 30.7145C130.639 30.8508 130.342 31.0572 130.1 31.3194C129.857 31.5816 129.673 31.8935 129.562 32.2335C129.45 32.5736 129.413 32.9339 129.454 33.2896V40.405H127L127 28.4089Z" fill="white"/>
<path d="M144.424 36.8859C144.094 39.0636 141.981 40.5581 139.277 40.5581C135.799 40.5581 133.641 38.2199 133.641 34.4688C133.641 30.706 135.811 28.2656 139.174 28.2656C142.481 28.2656 144.561 30.5456 144.561 34.1828V35.0265H136.118V35.1753C136.079 35.6168 136.134 36.0615 136.279 36.48C136.425 36.8985 136.657 37.2812 136.961 37.6025C137.266 37.9239 137.634 38.1767 138.043 38.344C138.452 38.5114 138.892 38.5895 139.333 38.5732C139.913 38.6277 140.495 38.4929 140.993 38.1889C141.49 37.8849 141.876 37.4279 142.094 36.8859L144.424 36.8859ZM136.129 33.3055H142.106C142.128 32.9086 142.068 32.5113 141.929 32.1387C141.791 31.7661 141.578 31.4262 141.302 31.1403C141.027 30.8544 140.696 30.6287 140.33 30.4774C139.963 30.3261 139.57 30.2523 139.174 30.2609C138.774 30.2585 138.378 30.3355 138.008 30.4876C137.638 30.6396 137.302 30.8636 137.019 31.1467C136.736 31.4297 136.512 31.7663 136.359 32.1368C136.206 32.5073 136.128 32.9046 136.129 33.3056V33.3055Z" fill="white"/>
<path d="M48.5067 14.9145H49.5602C49.7415 14.9371 49.9256 14.9218 50.1007 14.8696C50.2759 14.8173 50.4384 14.7292 50.5779 14.6108C50.7175 14.4924 50.8311 14.3463 50.9116 14.1816C50.9921 14.017 51.0377 13.8374 51.0456 13.6542C51.0456 12.925 50.4989 12.454 49.5718 12.454C49.386 12.428 49.1969 12.4395 49.0156 12.488C48.8343 12.5365 48.6646 12.621 48.5164 12.7364C48.3682 12.8519 48.2445 12.9959 48.1528 13.1601C48.061 13.3243 48.0029 13.5052 47.9819 13.6923H46.8253C46.8452 13.3527 46.9345 13.0209 47.0878 12.7174C47.241 12.414 47.4549 12.1455 47.716 11.9286C47.9772 11.7117 48.28 11.551 48.6057 11.4566C48.9314 11.3623 49.273 11.3362 49.6091 11.38C51.1603 11.38 52.2525 12.2515 52.2525 13.506C52.2561 13.9263 52.116 14.3351 51.8555 14.6641C51.5951 14.9932 51.23 15.2227 50.8212 15.3143V15.4074C51.3058 15.429 51.7621 15.6422 52.0905 16.0005C52.4189 16.3587 52.5925 16.8329 52.5735 17.3192C52.5377 17.6689 52.4326 18.0079 52.2645 18.3162C52.0964 18.6246 51.8687 18.8962 51.5947 19.1152C51.3206 19.3341 51.0058 19.4959 50.6686 19.5911C50.3314 19.6863 49.9787 19.7131 49.6311 19.6697C49.2828 19.7174 48.9284 19.6941 48.5892 19.6015C48.25 19.5088 47.9329 19.3485 47.6568 19.1302C47.3806 18.9118 47.1511 18.64 46.9819 18.3307C46.8127 18.0215 46.7072 17.6813 46.6719 17.3303H47.8465C47.9175 18.0866 48.6099 18.5744 49.6311 18.5744C50.6523 18.5744 51.3189 18.0265 51.3189 17.254C51.3189 16.4705 50.691 15.9878 49.5937 15.9878H48.5067V14.9145Z" fill="white"/>
<path d="M53.9062 17.7849C53.9062 16.7109 54.7044 16.0917 56.1176 16.0037L57.7281 15.9106V15.3956C57.7281 14.7654 57.3142 14.4096 56.5109 14.4096C55.8559 14.4096 55.4033 14.6509 55.2717 15.0728H54.1358C54.2557 14.0479 55.2176 13.3906 56.5663 13.3906C58.0569 13.3906 58.8976 14.1353 58.8976 15.3956V19.4722H57.7668V18.6337H57.6739C57.4855 18.9345 57.2209 19.1796 56.9071 19.3442C56.5934 19.5088 56.2417 19.5869 55.8881 19.5705C55.6385 19.5965 55.3862 19.5698 55.1476 19.492C54.9089 19.4142 54.6891 19.2871 54.5024 19.1189C54.3157 18.9507 54.1661 18.745 54.0635 18.5153C53.9608 18.2855 53.9072 18.0367 53.9062 17.7849ZM57.7281 17.275V16.7762L56.2761 16.8694C55.4574 16.9244 55.086 17.2039 55.086 17.7299C55.086 18.2668 55.5502 18.5793 56.1885 18.5793C56.3755 18.5983 56.5645 18.5794 56.744 18.5236C56.9236 18.4679 57.0902 18.3764 57.2338 18.2547C57.3775 18.133 57.4953 17.9836 57.5802 17.8153C57.6651 17.647 57.7154 17.4632 57.7281 17.275Z" fill="white"/>
<path d="M62.0171 14.5068V19.482H60.8438V13.5156H64.7585V14.5067L62.0171 14.5068Z" fill="white"/>
<path d="M71.8647 16.4864C71.8647 18.3821 70.9093 19.5706 69.4084 19.5706C69.04 19.5958 68.672 19.5149 68.3479 19.3373C68.0237 19.1598 67.7569 18.893 67.5787 18.5684H67.4859V21.4558H66.3125V13.5058H67.442V14.4919H67.5297C67.7111 14.1559 67.9814 13.8768 68.3109 13.6853C68.6404 13.4938 69.0162 13.3975 69.3968 13.4069C70.9093 13.4068 71.8647 14.5901 71.8647 16.4864ZM70.6578 16.4864C70.6578 15.2261 70.0634 14.4646 69.0693 14.4646C68.0817 14.4646 67.464 15.2423 67.464 16.4916C67.464 17.7351 68.0816 18.5134 69.0641 18.5134C70.0634 18.5134 70.6578 17.7519 70.6578 16.4864Z" fill="white"/>
<path d="M73.4342 21.619V20.6052C73.5612 20.6213 73.6891 20.6287 73.8171 20.6272C74.0671 20.6457 74.3151 20.571 74.5136 20.4174C74.712 20.2637 74.847 20.0419 74.8925 19.7945L74.9802 19.504L72.8281 13.5156H74.1059L75.5966 18.2547H75.6894L77.1748 13.5156H78.4191L76.2026 19.7285C75.6946 21.1803 75.1324 21.6461 73.9203 21.6461C73.8223 21.6461 73.5438 21.6351 73.4342 21.619Z" fill="white"/>
<path d="M79.3281 17.783H80.4963C80.6111 18.309 81.1024 18.5833 81.7896 18.5833C82.571 18.5833 83.0507 18.2378 83.0507 17.7008C83.0507 17.1257 82.62 16.8513 81.7896 16.8513H80.8999V15.9365H81.7741C82.4833 15.9365 82.8444 15.6629 82.8444 15.164C82.8444 14.726 82.4949 14.3916 81.7741 14.3916C81.1178 14.3916 80.6382 14.6711 80.5621 15.1421H79.4313C79.5158 14.6009 79.8086 14.1146 80.2468 13.7878C80.6849 13.461 81.2334 13.3198 81.7741 13.3946C83.1873 13.3946 83.9958 14.0357 83.9958 15.0437C84.0024 15.3244 83.9128 15.5989 83.7419 15.8212C83.5711 16.0435 83.3293 16.2003 83.0571 16.2652V16.3584C83.3812 16.4003 83.6787 16.5602 83.893 16.8077C84.1074 17.0551 84.2238 17.3729 84.2202 17.7008C84.2202 18.835 83.2583 19.5855 81.7896 19.5855C80.4912 19.5854 79.4364 18.9883 79.3281 17.783Z" fill="white"/>
<path d="M85.9062 19.482V13.5156H87.0693V17.6194H87.1621L89.9022 13.5156H91.0652V19.482H89.9022V15.3563H89.8145L87.0693 19.482L85.9062 19.482Z" fill="white"/>
<path d="M97.4739 14.5067H95.6016V19.4819H94.427V14.5067H92.5547V13.5156H97.4739V14.5067Z" fill="white"/>
<path d="M103.795 17.8613C103.635 18.4066 103.289 18.8781 102.818 19.1936C102.347 19.5091 101.78 19.6485 101.217 19.5874C100.825 19.5978 100.436 19.5225 100.076 19.3668C99.7166 19.2111 99.3948 18.9786 99.1335 18.6856C98.8722 18.3926 98.6776 18.0461 98.5631 17.67C98.4486 17.2939 98.4171 16.8974 98.4707 16.5078C98.4185 16.1171 98.4506 15.7197 98.5648 15.3425C98.679 14.9653 98.8726 14.6172 99.1326 14.3216C99.3925 14.026 99.7127 13.7899 100.071 13.6293C100.43 13.4687 100.819 13.3874 101.212 13.3907C102.866 13.3907 103.866 14.5249 103.866 16.3985V16.8094H99.6673V16.8753C99.6487 17.0943 99.6759 17.3148 99.7473 17.5226C99.8187 17.7304 99.9326 17.9209 100.082 18.0819C100.231 18.2429 100.412 18.3707 100.613 18.4573C100.815 18.5439 101.032 18.5872 101.251 18.5846C101.531 18.6182 101.815 18.5675 102.067 18.4387C102.319 18.3099 102.526 18.1089 102.664 17.8613L103.795 17.8613ZM99.6672 15.9385H102.669C102.684 15.7384 102.657 15.5373 102.59 15.3483C102.522 15.1593 102.417 14.9864 102.279 14.8409C102.141 14.6953 101.975 14.5803 101.79 14.5031C101.605 14.426 101.407 14.3884 101.207 14.3929C101.004 14.3901 100.802 14.4282 100.614 14.5049C100.426 14.5816 100.255 14.6954 100.112 14.8395C99.9683 14.9836 99.855 15.1551 99.7786 15.3438C99.7023 15.5326 99.6644 15.7348 99.6673 15.9385H99.6672Z" fill="white"/>
<path d="M108.773 13.5156H111.454C112.617 13.5156 113.299 14.107 113.299 15.0327C113.301 15.3265 113.202 15.612 113.019 15.8414C112.837 16.0708 112.581 16.2303 112.295 16.293V16.3862C112.642 16.4082 112.968 16.5632 113.204 16.8192C113.441 17.0752 113.57 17.4126 113.566 17.7617C113.566 18.8027 112.786 19.482 111.481 19.482H108.773V13.5156ZM109.937 14.4194V15.9644H111.1C111.809 15.9644 112.148 15.6907 112.148 15.1861C112.148 14.7209 111.853 14.4194 111.23 14.4194L109.937 14.4194ZM109.937 16.8301V18.5782H111.328C112.022 18.5782 112.393 18.2709 112.393 17.7067C112.393 17.1096 111.973 16.8301 111.181 16.8301L109.937 16.8301Z" fill="white"/>
</g>
<defs>
<clipPath id="clip0_3_3537">
<rect width="158" height="54" fill="white"/>
</clipPath>
</defs>
</svg>
