<svg width="180" height="54" viewBox="0 0 180 54" fill="none" xmlns="http://www.w3.org/2000/svg">
<path d="M173.333 54H6.66667C3 54 0 50.9625 0 47.25V6.75C0 3.0375 3 -3.8147e-06 6.66667 -3.8147e-06H173.333C177 -3.8147e-06 180 3.0375 180 6.75V47.25C180 50.9625 177 54 173.333 54Z" fill="#212225"/>
<path d="M173.333 -3.8147e-06H6.66667C3 -3.8147e-06 0 3.0375 0 6.75V47.25C0 50.9625 3 54 6.66667 54H173.333C177 54 180 50.9625 180 47.25V6.75C180 3.0375 177 -3.8147e-06 173.333 -3.8147e-06ZM173.333 1.08C176.421 1.08 178.933 3.62394 178.933 6.75V47.25C178.933 50.3766 176.421 52.9205 173.333 52.9205H6.66667C3.5792 52.9205 1.06667 50.3766 1.06667 47.25V6.75C1.06667 3.62394 3.5792 1.08 6.66667 1.08H173.333Z" fill="#A6A6A6"/>
<path d="M14.013 43.8516L13.9139 43.7568C13.5259 43.3462 13.2969 42.7088 13.2969 41.8833V42.0776V12.5896C13.2969 12.5869 13.2969 12.5849 13.2969 12.5828C13.2969 12.5853 13.2969 12.5874 13.2969 12.5901V12.7849C13.2969 11.891 13.5639 11.2177 14.0114 10.814L30.5311 27.3333L14.013 43.8516ZM13.2969 12.5812C13.2969 12.5077 13.2989 12.4364 13.3026 12.3661C13.2989 12.4358 13.2969 12.5077 13.2969 12.5812ZM13.3026 12.3629C13.3026 12.362 13.3026 12.3609 13.303 12.3598C13.3026 12.3609 13.3026 12.362 13.3026 12.3629ZM13.303 12.3536C13.303 12.353 13.303 12.3525 13.303 12.352C13.303 12.3525 13.303 12.353 13.303 12.3536Z" fill="url(#paint0_linear_3_3569)"/>
<path d="M36.037 33.0391L36.1626 32.9677L42.6865 29.2609C43.3085 28.9073 43.723 28.4787 43.9298 28.0251C43.7235 28.4787 43.3089 28.9079 42.6865 29.2615L36.1626 32.9683L36.037 33.0391ZM36.0386 32.8437L30.5312 27.3355L36.038 21.8281L42.6865 25.6052C43.5307 26.0849 44.0047 26.7032 44.0839 27.3349C44.0839 27.3355 44.0839 27.3365 44.0839 27.3375C44.0047 27.9677 43.5307 28.5865 42.6865 29.0661L36.0386 32.8437Z" fill="url(#paint1_linear_3_3569)"/>
<path d="M15.1901 44.4844C14.7287 44.4844 14.326 44.3344 14.012 44.051L14.0125 44.0505C14.3265 44.3338 14.7297 44.4844 15.1912 44.4844C15.2312 44.4844 15.2719 44.4833 15.3131 44.4813C15.2713 44.4833 15.2301 44.4844 15.1901 44.4844ZM15.1907 44.289C14.7292 44.2896 14.3265 44.139 14.0125 43.8557V43.8553L30.5307 27.337L36.038 32.8453L16.6844 43.8417C16.1489 44.1453 15.6416 44.289 15.1907 44.289ZM14.0079 44.0474C13.9787 44.0209 13.95 43.9928 13.9219 43.9636L14.0079 44.0474Z" fill="url(#paint2_linear_3_3569)"/>
<path d="M30.5354 27.3359L14.0156 10.8166C14.3296 10.5338 14.7318 10.3838 15.1927 10.3838C15.6448 10.3838 16.1526 10.5281 16.6891 10.8322L36.0422 21.8286L30.5354 27.3359ZM36.1667 21.7042L16.6891 10.6375C16.1526 10.3333 15.6448 10.189 15.1927 10.189C15.1906 10.189 15.1891 10.189 15.187 10.189C15.1896 10.189 15.1916 10.189 15.1948 10.189C15.6459 10.189 16.1531 10.3327 16.6891 10.637L36.1667 21.7042Z" fill="url(#paint3_linear_3_3569)"/>
<path d="M15.3137 44.4844C15.7329 44.4604 16.197 44.3161 16.685 44.0396L36.037 33.0437L16.685 44.0396C16.1974 44.3166 15.7329 44.4604 15.3137 44.4844ZM14.0126 44.0541L14.0085 44.0505C14.0099 44.0516 14.0115 44.053 14.0126 44.0541ZM13.9225 43.9666L13.9141 43.9584V43.9578C13.9173 43.9609 13.9198 43.964 13.9225 43.9666Z" fill="#212225"/>
<path d="M36.0312 33.0391L36.1568 32.9677L36.0312 33.0391Z" fill="url(#paint4_linear_3_3569)"/>
<path d="M15.1918 44.4844C14.7303 44.4844 14.3271 44.3338 14.0131 44.0505L14.0126 44.051C14.0115 44.05 14.0099 44.0485 14.0085 44.0474L13.9225 43.9636C13.9198 43.9609 13.9173 43.9578 13.9141 43.9548L14.0131 43.8557C14.3271 44.139 14.7298 44.2896 15.1913 44.289C15.6422 44.289 16.1495 44.1453 16.685 43.8417L36.0386 32.8453L36.1626 32.9693L36.037 33.0406L16.685 44.0365C16.197 44.313 15.7329 44.4573 15.3137 44.4813C15.2725 44.4833 15.2318 44.4844 15.1918 44.4844Z" fill="url(#paint5_linear_3_3569)"/>
<path d="M13.9139 43.9531C13.5259 43.5426 13.2969 42.9051 13.2969 42.0797V42.0791C13.2969 42.9051 13.5259 43.5421 13.9139 43.9526V43.9531Z" fill="#212225"/>
<path d="M13.9139 43.9531C13.5259 43.5426 13.2969 42.9057 13.2969 42.0797V41.8854C13.2969 42.7109 13.5259 43.3483 13.9139 43.7589L14.013 43.8537L13.9139 43.9531Z" fill="url(#paint6_linear_3_3569)"/>
<path d="M13.9141 43.9531L14.0131 43.8537V43.8541L13.9141 43.9531Z" fill="url(#paint7_linear_3_3569)"/>
<path d="M43.9297 28.0234C44.0322 27.7984 44.0838 27.5672 44.0838 27.3358C44.0838 27.3354 44.0838 27.3349 44.0838 27.3349C44.0838 27.5666 44.0322 27.7978 43.9297 28.0234Z" fill="#212225"/>
<path d="M36.1631 32.9688L36.0391 32.8448L42.6869 29.0672C43.5312 28.5876 44.0052 27.9688 44.0844 27.3385C44.0844 27.5698 44.0328 27.801 43.9303 28.0261C43.7235 28.4797 43.3089 28.9084 42.6869 29.262L36.1631 32.9688Z" fill="url(#paint8_linear_3_3569)"/>
<path d="M44.0859 27.3359V27.3354C44.0854 26.6379 43.6193 25.9406 42.6885 25.4114L36.1646 21.7046H36.1641L36.1646 21.7042L42.6885 25.4109C43.6203 25.9401 44.087 26.6385 44.0859 27.3359Z" fill="#404040"/>
<path d="M44.0849 27.3359C44.0057 26.7042 43.5317 26.0859 42.6875 25.6062L36.0391 21.8291L36.1631 21.7051H36.1636L42.6875 25.4119C43.6183 25.9411 44.0844 26.6385 44.0849 27.3359Z" fill="url(#paint9_linear_3_3569)"/>
<path d="M13.2969 12.5781C13.2969 12.5776 13.2969 12.5771 13.2969 12.5765C13.2969 12.5771 13.2969 12.5776 13.2969 12.5781ZM13.3026 12.3615C13.3026 12.3604 13.3026 12.3593 13.3026 12.3583C13.3026 12.3593 13.3026 12.3604 13.3026 12.3615ZM13.303 12.3552C13.303 12.3531 13.303 12.3511 13.303 12.3489C13.303 12.3511 13.303 12.3531 13.303 12.3552ZM13.303 12.3473C13.3802 10.9776 14.125 10.1864 15.1786 10.1817C14.7218 10.1844 14.3239 10.3344 14.0125 10.6151V10.6145L14.0087 10.6183C13.9759 10.6479 13.9447 10.6792 13.9139 10.7115C13.5639 11.0817 13.3431 11.6364 13.303 12.3473Z" fill="#404040"/>
<path d="M13.2969 12.7812V12.5865C13.2969 12.5838 13.2969 12.5817 13.2969 12.5791C13.2969 12.5786 13.2969 12.5781 13.2969 12.5775C13.2969 12.5041 13.2989 12.4322 13.3026 12.3625C13.3026 12.3614 13.3026 12.3603 13.3026 12.3593C13.3026 12.3583 13.3026 12.3573 13.303 12.3562C13.303 12.3541 13.303 12.3521 13.303 12.3499C13.303 12.3494 13.303 12.3489 13.303 12.3483C13.3431 11.6374 13.5639 11.0827 13.9139 10.7125L14.0114 10.8103C13.5639 11.2141 13.2969 11.8874 13.2969 12.7812ZM14.0087 10.6193L14.0125 10.6155C14.0114 10.6171 14.0098 10.6182 14.0087 10.6193Z" fill="url(#paint10_linear_3_3569)"/>
<path d="M36.0381 21.8281L16.685 10.8317C16.1485 10.5276 15.6407 10.3833 15.1886 10.3833C14.7277 10.3833 14.3255 10.5333 14.0115 10.8161L13.9141 10.7183C13.9449 10.686 13.9761 10.6547 14.0089 10.6251C14.0099 10.624 14.0115 10.6229 14.0126 10.6219C14.3241 10.3412 14.7219 10.1912 15.1787 10.1885C15.1798 10.1885 15.1813 10.1885 15.1829 10.1885C15.185 10.1885 15.1865 10.1885 15.1886 10.1885C15.6407 10.1885 16.1485 10.3328 16.685 10.6371L36.1626 21.7037L36.1621 21.7041L36.0381 21.8281Z" fill="url(#paint11_linear_3_3569)"/>
<path d="M142.578 41.6666H145.066V24.9984H142.578V41.6666ZM164.987 31.0026L162.135 38.2292H162.05L159.09 31.0026H156.41L160.848 41.103L158.318 46.7213H160.914L167.754 31.0026H164.987ZM150.878 39.7734C150.062 39.7734 148.926 39.3661 148.926 38.3578C148.926 37.0713 150.342 36.5781 151.563 36.5781C152.658 36.5781 153.171 36.814 153.836 37.136C153.643 38.6797 152.314 39.7734 150.878 39.7734ZM151.178 30.638C149.376 30.638 147.511 31.4317 146.739 33.1901L148.947 34.112C149.419 33.1901 150.298 32.8896 151.22 32.8896C152.507 32.8896 153.815 33.662 153.836 35.0344V35.2057C153.386 34.9484 152.422 34.5625 151.242 34.5625C148.862 34.5625 146.438 35.8702 146.438 38.315C146.438 40.5453 148.39 41.9822 150.576 41.9822C152.25 41.9822 153.171 41.2317 153.751 40.3526H153.836V41.639H156.238V35.2484C156.238 32.2896 154.03 30.638 151.178 30.638ZM135.802 33.0317H132.263V27.3182H135.802C137.662 27.3182 138.718 28.8582 138.718 30.1749C138.718 31.4666 137.662 33.0317 135.802 33.0317ZM135.738 24.9984H129.776V41.6666H132.263V35.3516H135.738C138.495 35.3516 141.206 33.3552 141.206 30.1749C141.206 26.9948 138.495 24.9984 135.738 24.9984ZM103.23 39.7765C101.511 39.7765 100.072 38.3374 100.072 36.3609C100.072 34.3636 101.511 32.9026 103.23 32.9026C104.927 32.9026 106.258 34.3636 106.258 36.3609C106.258 38.3374 104.927 39.7765 103.23 39.7765ZM106.086 31.936H106C105.442 31.2702 104.368 30.6688 103.015 30.6688C100.179 30.6688 97.5802 33.1604 97.5802 36.3609C97.5802 39.5401 100.179 42.0104 103.015 42.0104C104.368 42.0104 105.442 41.4088 106 40.7218H106.086V41.538C106.086 43.7078 104.927 44.8677 103.058 44.8677C101.533 44.8677 100.588 43.7718 100.2 42.8484L98.0313 43.7505C98.6542 45.2541 100.308 47.1016 103.058 47.1016C105.979 47.1016 108.449 45.3828 108.449 41.1942V31.0125H106.086V31.936ZM110.168 41.6666H112.659V24.9978H110.168V41.6666ZM116.333 36.1677C116.268 33.9765 118.03 32.8598 119.297 32.8598C120.286 32.8598 121.123 33.3536 121.402 34.063L116.333 36.1677ZM124.066 34.2776C123.594 33.0098 122.154 30.6688 119.211 30.6688C116.29 30.6688 113.862 32.9672 113.862 36.3396C113.862 39.5188 116.268 42.0104 119.49 42.0104C122.09 42.0104 123.594 40.4208 124.216 39.4973L122.283 38.2082C121.639 39.1536 120.758 39.7765 119.49 39.7765C118.223 39.7765 117.321 39.1964 116.741 38.0582L124.323 34.9218L124.066 34.2776ZM63.6547 32.4088V34.8145H69.4114C69.2395 36.1677 68.7885 37.1557 68.101 37.8432C67.2635 38.6812 65.9531 39.6046 63.6547 39.6046C60.1103 39.6046 57.3395 36.7478 57.3395 33.2036C57.3395 29.6593 60.1103 26.8021 63.6547 26.8021C65.5666 26.8021 66.9625 27.5541 67.9937 28.5208L69.6906 26.824C68.2515 25.4489 66.3395 24.3964 63.6547 24.3964C58.7999 24.3964 54.7188 28.3489 54.7188 33.2036C54.7188 38.0582 58.7999 42.0104 63.6547 42.0104C66.2755 42.0104 68.2516 41.1516 69.798 39.5401C71.3876 37.9505 71.8818 35.7166 71.8818 33.9125C71.8818 33.3536 71.839 32.8385 71.7526 32.4088H63.6547ZM78.4266 39.7765C76.7078 39.7765 75.2255 38.3588 75.2255 36.3396C75.2255 34.2989 76.7078 32.9026 78.4266 32.9026C80.1447 32.9026 81.627 34.2989 81.627 36.3396C81.627 38.3588 80.1447 39.7765 78.4266 39.7765ZM78.4266 30.6688C75.2901 30.6688 72.7338 33.053 72.7338 36.3396C72.7338 39.6046 75.2901 42.0104 78.4266 42.0104C81.5625 42.0104 84.1188 39.6046 84.1188 36.3396C84.1188 33.053 81.5625 30.6688 78.4266 30.6688ZM90.8442 39.7765C89.1261 39.7765 87.6437 38.3588 87.6437 36.3396C87.6437 34.2989 89.1261 32.9026 90.8442 32.9026C92.5625 32.9026 94.0447 34.2989 94.0447 36.3396C94.0447 38.3588 92.5625 39.7765 90.8442 39.7765ZM90.8442 30.6688C87.7078 30.6688 85.1521 33.053 85.1521 36.3396C85.1521 39.6046 87.7078 42.0104 90.8442 42.0104C93.9802 42.0104 96.5365 39.6046 96.5365 36.3396C96.5365 33.053 93.9802 30.6688 90.8442 30.6688Z" fill="white"/>
<path d="M57.9906 14.961C58.0062 16.2266 57.7526 17.2474 57.2317 18.0225H61.2759V11.9881H57.9906V14.961ZM56.1469 20.7031H55.1641V18.0225H55.9463C56.639 17.4255 56.9775 16.4058 56.9635 14.961V11.0053H62.3046V18.0225H63.1979V20.7031H62.2146V19.0053H56.1469V20.7031Z" fill="white"/>
<path d="M57.9911 14.9527L57.8578 14.9543L57.8589 15.062C57.8583 16.2595 57.6083 17.2157 57.1212 17.9396L56.9818 18.1475H61.4098V11.8464H57.8578V14.9537V14.9543L57.9911 14.9527H58.1245V12.1131H61.1431V17.8808H57.2322V18.0141L57.3427 18.0881C57.8671 17.3079 58.1255 16.2953 58.1255 15.062L58.1245 14.9511L57.9911 14.9527H58.1245H57.9911ZM56.1474 20.6948V20.5615H55.2979V18.1475H55.9469H55.9963L56.0338 18.1152C56.7546 17.4933 57.0979 16.4573 57.0979 15.0401L57.0974 14.9516V14.9527V11.1303H62.1718V18.1475H63.0651V20.5615H62.3485V18.9969V18.8636H56.0141V20.6948H56.1474V20.5615V20.6948H56.2807V19.1303H62.0818V20.6948V20.8281H63.1985H63.3318V17.8808H62.4385V10.8636H56.8307V14.9532V14.9537L56.8313 15.0401C56.8307 16.4199 56.4963 17.3663 55.8598 17.9125L55.9469 18.0141V17.8808H55.1646H55.0312V20.8281H56.1474H56.2807V20.6948H56.1474Z" fill="white"/>
<path d="M66.1093 17.2974C66.702 17.8969 67.426 18.1964 68.2828 18.1964C69.1395 18.1964 69.8645 17.8969 70.4556 17.2974C71.0484 16.698 71.3452 15.9317 71.3452 15.001C71.3452 14.0704 71.0484 13.3041 70.4556 12.7046C69.8645 12.1052 69.1395 11.8057 68.2828 11.8057C67.426 11.8057 66.702 12.1052 66.1093 12.7046C65.5181 13.3041 65.2213 14.0704 65.2213 15.001C65.2213 15.9317 65.5181 16.698 66.1093 17.2974ZM71.2161 17.9672C70.4296 18.776 69.452 19.1797 68.2828 19.1797C67.1135 19.1797 66.1353 18.776 65.3504 17.9672C64.564 17.1593 64.1719 16.1704 64.1719 15.001C64.1719 13.8317 64.564 12.8426 65.3504 12.0349C66.1353 11.226 67.1135 10.8218 68.2828 10.8218C69.4452 10.8218 70.4208 11.2281 71.2108 12.0401C71.9999 12.8521 72.3947 13.839 72.3947 15.001C72.3947 16.1704 72.0015 17.1593 71.2161 17.9672Z" fill="white"/>
<path d="M66.1021 17.2969L66.0073 17.3906C66.6213 18.0141 67.3874 18.3308 68.2755 18.3292C69.163 18.3308 69.9307 18.0141 70.5431 17.3906C71.1614 16.7666 71.4723 15.9593 71.4713 15.0005C71.4723 14.0417 71.1614 13.2344 70.5431 12.6104C69.9307 11.9869 69.163 11.6702 68.2755 11.6718C67.3874 11.6702 66.6213 11.9869 66.0073 12.6104C65.3906 13.2344 65.0797 14.0417 65.0807 15.0005C65.0797 15.9593 65.3906 16.7666 66.0073 17.3906L66.1021 17.2969L66.1974 17.2032C65.6317 16.6276 65.3489 15.9036 65.3474 15.0005C65.3489 14.0974 65.6317 13.3734 66.1974 12.7978H66.1969C66.7677 12.2224 67.4494 11.9401 68.2755 11.9385C69.101 11.9401 69.7843 12.2224 70.3535 12.7978L70.3556 12.8L70.3535 12.7978C70.9207 13.3734 71.2031 14.0974 71.2046 15.0005C71.2031 15.9036 70.9207 16.6276 70.3535 17.2032C69.7843 17.7786 69.101 18.0609 68.2755 18.0625C67.4494 18.0609 66.7677 17.7786 66.1969 17.2032L66.1021 17.2969ZM71.2089 17.9666L71.1135 17.874C70.3494 18.6573 69.4141 19.0442 68.2755 19.0458C67.1365 19.0442 66.2015 18.6573 65.4385 17.874C64.6759 17.088 64.2994 16.1401 64.2979 15.0005C64.2994 13.8609 64.6759 12.913 65.4385 12.127C66.2015 11.3437 67.1365 10.9562 68.2755 10.9546C69.4073 10.9562 70.3401 11.3453 71.1083 12.1328C71.8739 12.9224 72.2526 13.8688 72.2541 15.0005C72.2526 16.1401 71.875 17.088 71.1135 17.874L71.2089 17.9666L71.3046 18.0593C72.113 17.2292 72.5218 16.1994 72.5207 15.0005C72.5218 13.8084 72.1119 12.7808 71.2994 11.9469C70.4868 11.1098 69.4693 10.6865 68.2755 10.688C67.0755 10.6865 66.0546 11.1078 65.2474 11.9417V11.9412C64.4374 12.7718 64.0302 13.8016 64.0313 15.0005C64.0302 16.1994 64.4374 17.2292 65.2474 18.0598V18.0593C66.0546 18.8932 67.0755 19.3136 68.2755 19.3125C69.475 19.3136 70.4958 18.8932 71.3046 18.0593L71.2089 17.9666Z" fill="white"/>
<path d="M77.5625 19.1797C76.3855 19.1797 75.3985 18.7813 74.6016 17.9838C73.8032 17.187 73.4062 16.1926 73.4062 15.001C73.4062 13.8093 73.8032 12.815 74.6016 12.0182C75.3985 11.2208 76.3855 10.8218 77.5625 10.8218C78.7683 10.8218 79.7485 11.2578 80.501 12.1292L79.7849 12.8224C79.2423 12.1442 78.5 11.8057 77.5625 11.8057C76.6901 11.8057 75.9541 12.1 75.3552 12.6885C74.7552 13.277 74.4557 14.048 74.4557 15.001C74.4557 15.9541 74.7552 16.7256 75.3552 17.3136C75.9541 17.9021 76.6901 18.1964 77.5625 18.1964C78.5235 18.1964 79.3423 17.8093 80.0208 17.0349L80.7355 17.7494C80.3699 18.189 79.9125 18.5374 79.3604 18.7937C78.8099 19.051 78.2095 19.1797 77.5625 19.1797Z" fill="white"/>
<path d="M77.5709 19.1792V19.0458C76.4235 19.0442 75.4782 18.6614 74.7042 17.889C73.9307 17.1156 73.549 16.1625 73.5479 15.0005C73.549 13.8385 73.9307 12.8854 74.7042 12.112C75.4782 11.339 76.4235 10.9562 77.5709 10.9546C78.7449 10.9568 79.6782 11.3724 80.4083 12.2156L80.5094 12.1286L80.4167 12.0328L79.7006 12.7265L79.7933 12.8218L79.8974 12.7385C79.3318 12.0292 78.5397 11.6698 77.5709 11.6718C76.6682 11.6708 75.8917 11.9808 75.2703 12.5926C74.6427 13.2068 74.3291 14.0202 74.3307 15.0005C74.3291 15.9808 74.6427 16.7953 75.2703 17.4084C75.8917 18.0202 76.6682 18.3302 77.5709 18.3292C78.5682 18.3308 79.4323 17.9213 80.1291 17.1224L80.0291 17.0344L79.9349 17.1286L80.6495 17.8432L80.7438 17.7489L80.6411 17.6641C80.2881 18.088 79.8485 18.4234 79.3125 18.6724C78.7797 18.9213 78.2006 19.0453 77.5709 19.0458V19.1792V19.3125C78.2354 19.3125 78.8563 19.1802 79.425 18.9141C79.9938 18.6505 80.4678 18.2896 80.8463 17.8344L80.9239 17.7412L80.1235 16.9401L80.0225 16.839L79.9287 16.9464C79.2693 17.6969 78.4954 18.0609 77.5709 18.0625C76.7282 18.0609 76.0339 17.7828 75.4573 17.2177H75.4569C74.8839 16.6552 74.5985 15.9265 74.5974 15.0005C74.5985 14.0745 74.8839 13.3469 75.4569 12.7833H75.4573C76.0339 12.2182 76.7282 11.9401 77.5709 11.9385C78.4766 11.9406 79.1687 12.2584 79.6891 12.9052L79.7807 13.0198L80.6021 12.2245L80.6927 12.1369L80.6105 12.0417C79.8359 11.1417 78.8083 10.6865 77.5709 10.688C76.3635 10.6869 75.3349 11.1021 74.5157 11.9234C73.6922 12.7432 73.2797 13.7797 73.2813 15.0005C73.2797 16.2213 73.6922 17.2578 74.5157 18.0781C75.3349 18.8989 76.3635 19.3136 77.5709 19.3125V19.1792Z" fill="white"/>
<path d="M84.9036 19H83.875V11.9828H81.6406V11H87.138V11.9828H84.9036V19Z" fill="white"/>
<path d="M84.8963 18.9995V18.8661H84.0011V11.8489H81.7667V11.1328H86.9973V11.8489H84.7629V18.9995H84.8963V18.8661V18.9995H85.0296V12.1156H87.264V10.9995V10.8661H81.5V11.9823V12.1156H83.7344V19.1328H84.8963H85.0296V18.9995H84.8963Z" fill="white"/>
<path d="M94.1959 11.001L91.1688 17.7494C90.7505 18.7032 90.1303 19.1797 89.3032 19.1797C89.0573 19.1797 88.7927 19.1204 88.5089 19.001L88.7771 18.051C88.9489 18.1484 89.1276 18.1964 89.3136 18.1964C89.5521 18.1964 89.7369 18.15 89.8672 18.0573C89.9975 17.9641 90.1183 17.7937 90.2303 17.5484L90.5208 16.9109L87.8281 11.001H89.0349L91.0125 15.5932H91.0568L92.9885 11.001H94.1959Z" fill="white"/>
<path d="M94.1923 11.0005L94.0704 10.9458L91.0433 17.6947L91.0428 17.6958C90.6313 18.6202 90.0693 19.0411 89.2996 19.0458C89.0751 19.0458 88.8281 18.9917 88.5568 18.8775L88.5053 19.0005L88.6339 19.0369L88.9016 18.0869L88.7735 18.0505L88.7084 18.1666C88.898 18.2739 89.1005 18.3297 89.31 18.3291C89.5647 18.3291 89.7781 18.2807 89.9412 18.165C90.1016 18.0489 90.2303 17.8598 90.348 17.6035L90.6387 16.9661L90.6636 16.9103L88.0319 11.1338H88.9439L90.9209 15.7259H91.0532H91.1417L93.0735 11.1338H94.1923V11.0005L94.0704 10.9458L94.1923 11.0005V10.8671H92.9849H92.8964L90.9297 15.5411L91.0532 15.5926V15.4593H91.0089V15.5926L91.1313 15.5401L89.1193 10.8671H87.8245H87.6172L90.3704 16.9103L90.1053 17.4926C89.9996 17.7265 89.886 17.8775 89.786 17.9478C89.6887 18.0182 89.5319 18.063 89.31 18.0625C89.1469 18.0625 88.9933 18.0213 88.8391 17.9343L88.6912 17.851L88.3772 18.9641L88.3448 19.0775L88.4537 19.1234C88.75 19.2478 89.0319 19.3125 89.2996 19.3125C90.1833 19.3166 90.8625 18.7843 91.2871 17.8026L91.2865 17.8035L94.398 10.8671H94.1923V11.0005Z" fill="white"/>
<path d="M95.3594 19V11H101.147V19H100.119V11.9828H96.3864V19H95.3594Z" fill="white"/>
<path d="M95.3521 18.9995H95.4854V11.1328H101.006V18.8661H100.245V11.8489H96.2458V18.8661H95.3521V18.9995H95.4854H95.3521V19.1328H96.3792H96.5125V12.1156H99.9782V19.1328H101.14H101.273V10.8661H95.2188V19.1328H95.3521V18.9995Z" fill="white"/>
<path d="M102.969 19V11H103.996V14.4297H107.996V11H109.025V19H107.996V15.3907H103.996V19H102.969Z" fill="white"/>
<path d="M102.977 18.9995H103.11V11.1328H103.871V14.5625H108.138V11.1328H108.9V18.8661H108.138V15.2568H103.871V18.8661H102.977V18.9995H103.11H102.977V19.1328H104.005H104.138V15.5235H107.871V19.1328H109.033H109.167V10.8661H108.005H107.871V14.2959H104.138V10.8661H102.977H102.844V19.1328H102.977V18.9995Z" fill="white"/>
<path d="M112.297 17.2974C112.89 17.8969 113.614 18.1964 114.47 18.1964C115.327 18.1964 116.052 17.8969 116.643 17.2974C117.236 16.698 117.533 15.9317 117.533 15.001C117.533 14.0704 117.236 13.3041 116.643 12.7046C116.052 12.1052 115.327 11.8057 114.47 11.8057C113.614 11.8057 112.89 12.1052 112.297 12.7046C111.706 13.3041 111.409 14.0704 111.409 15.001C111.409 15.9317 111.706 16.698 112.297 17.2974ZM117.404 17.9672C116.618 18.776 115.64 19.1797 114.47 19.1797C113.301 19.1797 112.324 18.776 111.538 17.9672C110.752 17.1593 110.359 16.1704 110.359 15.001C110.359 13.8317 110.752 12.8426 111.538 12.0349C112.324 11.226 113.301 10.8218 114.47 10.8218C115.633 10.8218 116.608 11.2281 117.398 12.0401C118.188 12.8521 118.582 13.839 118.582 15.001C118.582 16.1704 118.189 17.1593 117.404 17.9672Z" fill="white"/>
<path d="M112.305 17.2969L112.211 17.3906C112.825 18.0141 113.591 18.3308 114.479 18.3292C115.367 18.3308 116.134 18.0141 116.747 17.3906C117.365 16.7666 117.676 15.9593 117.675 15.0005C117.676 14.0417 117.365 13.2344 116.747 12.6104C116.134 11.9869 115.367 11.6702 114.479 11.6718C113.591 11.6702 112.825 11.9869 112.211 12.6104C111.594 13.2344 111.283 14.0417 111.284 15.0005C111.283 15.9593 111.594 16.7666 112.211 17.3906L112.305 17.2969L112.401 17.2032C111.835 16.6276 111.552 15.9036 111.551 15.0005C111.552 14.0974 111.835 13.3734 112.401 12.7978C112.971 12.2224 113.653 11.9401 114.479 11.9385C115.304 11.9401 115.988 12.2224 116.557 12.7978L116.561 12.8021L116.557 12.7978C117.124 13.3734 117.407 14.0974 117.408 15.0005C117.407 15.9036 117.124 16.6276 116.557 17.2032C115.988 17.7786 115.304 18.0609 114.479 18.0625C113.653 18.0609 112.971 17.7786 112.401 17.2032L112.305 17.2969ZM117.412 17.9666L117.317 17.874C116.553 18.6573 115.617 19.0442 114.479 19.0458C113.34 19.0442 112.405 18.6573 111.642 17.874L111.638 17.8698L111.642 17.874C110.879 17.088 110.503 16.1401 110.501 15.0005C110.503 13.8609 110.879 12.913 111.642 12.127C112.405 11.3437 113.34 10.9562 114.479 10.9546C115.611 10.9562 116.543 11.3453 117.311 12.1328C118.077 12.9224 118.456 13.8688 118.457 15.0005C118.456 16.1401 118.078 17.088 117.317 17.874L117.412 17.9666L117.508 18.0593C118.317 17.2292 118.725 16.1994 118.724 15.0005C118.725 13.8084 118.315 12.7808 117.503 11.9469C116.69 11.1098 115.672 10.6865 114.479 10.688C113.279 10.6865 112.258 11.1078 111.451 11.9417V11.9412C110.641 12.7718 110.233 13.8016 110.234 15.0005C110.233 16.1994 110.641 17.2292 111.451 18.0598V18.0593C112.258 18.8932 113.279 19.3136 114.479 19.3125C115.679 19.3136 116.699 18.8932 117.508 18.0593L117.412 17.9666Z" fill="white"/>
<path d="M123.816 18.0172H125.884C126.278 18.0172 126.598 17.8792 126.845 17.6027C127.09 17.3281 127.213 17.026 127.213 16.6979C127.213 16.3703 127.086 16.0708 126.833 15.7989C126.581 15.5271 126.248 15.3907 125.838 15.3907H123.816V18.0172ZM123.816 14.4297H125.682C126.07 14.4297 126.381 14.3021 126.616 14.0443C126.85 13.7875 126.968 13.5068 126.968 13.2011C126.968 12.8959 126.854 12.6156 126.626 12.3636C126.4 12.1099 126.1 11.9828 125.728 11.9828H123.816V14.4297ZM122.789 19V11H125.682C126.308 11 126.85 11.2073 127.308 11.6197C127.766 12.0339 127.996 12.5531 127.996 13.1787C127.996 13.5583 127.897 13.8937 127.698 14.1844C127.502 14.4749 127.24 14.6948 126.912 14.8437V14.888C127.305 15.0219 127.63 15.2531 127.884 15.5807C128.136 15.9088 128.264 16.2891 128.264 16.7208C128.264 17.376 128.024 17.9197 127.542 18.3516C127.062 18.7839 126.494 19 125.838 19H122.789Z" fill="white"/>
<path d="M123.816 18.0167V18.15H125.884C126.31 18.1516 126.676 17.9953 126.944 17.6911C127.208 17.3979 127.348 17.0593 127.347 16.6973C127.348 16.3349 127.203 15.9979 126.931 15.7073C126.655 15.4077 126.278 15.2552 125.839 15.2568H123.683V18.15H123.816V18.0167H123.95V15.5235H125.839C126.22 15.5249 126.507 15.6459 126.736 15.8891C126.971 16.1432 127.079 16.4052 127.08 16.6973C127.079 16.9916 126.974 17.2573 126.746 17.5135C126.523 17.7615 126.248 17.8812 125.884 17.8833H123.816V18.0167H123.95H123.816ZM123.816 14.4292V14.5625H125.683C126.099 14.564 126.456 14.4203 126.715 14.1333V14.1339C126.967 13.8588 127.102 13.5411 127.102 13.2005C127.102 12.862 126.972 12.5453 126.726 12.2735V12.274C126.476 11.9916 126.13 11.8473 125.728 11.8489H123.683V14.5625H123.816V14.4292H123.95V12.1156H125.728C126.071 12.1177 126.324 12.2271 126.527 12.4516L126.528 12.4525L126.527 12.4521C126.736 12.6855 126.834 12.9292 126.835 13.2005C126.834 13.4708 126.734 13.7156 126.518 13.9536V13.9541C126.307 14.1828 126.042 14.2943 125.683 14.2959H123.816V14.4292H123.95H123.816ZM122.79 18.9995H122.923V11.1328H125.683C126.279 11.1339 126.783 11.3265 127.219 11.7183C127.652 12.1109 127.862 12.5855 127.863 13.1781C127.863 13.5349 127.771 13.8407 127.59 14.1088C127.406 14.3797 127.164 14.5817 126.856 14.7219L126.779 14.7573V14.8875V14.9828L126.868 15.0135C127.24 15.1407 127.54 15.3541 127.779 15.662L127.78 15.6635L127.779 15.6615C128.014 15.9677 128.131 16.3145 128.131 16.7203C128.13 17.3432 127.908 17.8416 127.454 18.2521C126.995 18.6631 126.466 18.8651 125.839 18.8661H122.79V18.9995H122.923H122.79V19.1328H125.839C126.524 19.1339 127.13 18.9036 127.632 18.45C128.139 17.9973 128.399 17.4083 128.398 16.7203C128.399 16.2625 128.26 15.8489 127.99 15.4989L127.988 15.4973L127.99 15.4984C127.722 15.1516 127.372 14.9025 126.955 14.7615L126.912 14.8875H127.046V14.8432H126.912L126.967 14.9645C127.315 14.8068 127.6 14.5697 127.81 14.2583V14.2588C128.023 13.9459 128.13 13.5807 128.13 13.1781C128.131 12.5203 127.883 11.9557 127.398 11.5203L127.395 11.5177L127.398 11.5203C126.918 11.0864 126.338 10.8651 125.683 10.8661H122.656V19.1328H122.79V18.9995Z" fill="white"/>
<defs>
<linearGradient id="paint0_linear_3_3569" x1="29.0663" y1="12.2785" x2="6.68968" y2="34.6552" gradientUnits="userSpaceOnUse">
<stop stop-color="#00A0FF"/>
<stop offset="0.00657445" stop-color="#00A1FF"/>
<stop offset="0.2601" stop-color="#00BEFF"/>
<stop offset="0.5122" stop-color="#00D2FF"/>
<stop offset="0.7604" stop-color="#00DFFF"/>
<stop offset="1" stop-color="#00E3FF"/>
</linearGradient>
<linearGradient id="paint1_linear_3_3569" x1="45.1126" y1="27.3363" x2="12.8499" y2="27.3363" gradientUnits="userSpaceOnUse">
<stop stop-color="#FFE000"/>
<stop offset="0.4087" stop-color="#FFBD00"/>
<stop offset="0.7754" stop-color="#FFA500"/>
<stop offset="1" stop-color="#FF9C00"/>
</linearGradient>
<linearGradient id="paint2_linear_3_3569" x1="33.1021" y1="30.3974" x2="2.75774" y2="60.7418" gradientUnits="userSpaceOnUse">
<stop stop-color="#FF3A44"/>
<stop offset="1" stop-color="#C31162"/>
</linearGradient>
<linearGradient id="paint3_linear_3_3569" x1="9.73389" y1="0.90314" x2="23.2839" y2="14.4531" gradientUnits="userSpaceOnUse">
<stop stop-color="#32A071"/>
<stop offset="0.0685" stop-color="#2DA771"/>
<stop offset="0.4762" stop-color="#15CF74"/>
<stop offset="0.8009" stop-color="#06E775"/>
<stop offset="1" stop-color="#00F076"/>
</linearGradient>
<linearGradient id="paint4_linear_3_3569" x1="45.1067" y1="27.3362" x2="12.8445" y2="27.3362" gradientUnits="userSpaceOnUse">
<stop stop-color="#CCB300"/>
<stop offset="0.4087" stop-color="#CC9700"/>
<stop offset="0.7754" stop-color="#CC8400"/>
<stop offset="1" stop-color="#CC7D00"/>
</linearGradient>
<linearGradient id="paint5_linear_3_3569" x1="33.1027" y1="30.3974" x2="2.75833" y2="60.7418" gradientUnits="userSpaceOnUse">
<stop stop-color="#CC2E36"/>
<stop offset="1" stop-color="#9C0E4E"/>
</linearGradient>
<linearGradient id="paint6_linear_3_3569" x1="29.0663" y1="12.2806" x2="6.68967" y2="34.6572" gradientUnits="userSpaceOnUse">
<stop stop-color="#008DE0"/>
<stop offset="0.00657445" stop-color="#008DE0"/>
<stop offset="0.2601" stop-color="#00A7E0"/>
<stop offset="0.5122" stop-color="#00B8E0"/>
<stop offset="0.7604" stop-color="#00C4E0"/>
<stop offset="1" stop-color="#00C7E0"/>
</linearGradient>
<linearGradient id="paint7_linear_3_3569" x1="33.103" y1="30.3958" x2="2.75854" y2="60.7406" gradientUnits="userSpaceOnUse">
<stop stop-color="#E0333C"/>
<stop offset="1" stop-color="#AB0F56"/>
</linearGradient>
<linearGradient id="paint8_linear_3_3569" x1="45.1131" y1="27.3373" x2="12.8504" y2="27.3373" gradientUnits="userSpaceOnUse">
<stop stop-color="#E0C500"/>
<stop offset="0.4087" stop-color="#E0A600"/>
<stop offset="0.7754" stop-color="#E09100"/>
<stop offset="1" stop-color="#E08900"/>
</linearGradient>
<linearGradient id="paint9_linear_3_3569" x1="45.1136" y1="27.3373" x2="12.8509" y2="27.3373" gradientUnits="userSpaceOnUse">
<stop stop-color="#FFE840"/>
<stop offset="0.4087" stop-color="#FFCE40"/>
<stop offset="0.7754" stop-color="#FFBC40"/>
<stop offset="1" stop-color="#FFB540"/>
</linearGradient>
<linearGradient id="paint10_linear_3_3569" x1="29.0663" y1="12.2749" x2="6.68967" y2="34.6515" gradientUnits="userSpaceOnUse">
<stop stop-color="#40B8FF"/>
<stop offset="0.00657445" stop-color="#40B9FF"/>
<stop offset="0.2601" stop-color="#40CEFF"/>
<stop offset="0.5122" stop-color="#40DDFF"/>
<stop offset="0.7604" stop-color="#40E7FF"/>
<stop offset="1" stop-color="#40EAFF"/>
</linearGradient>
<linearGradient id="paint11_linear_3_3569" x1="9.7298" y1="0.902658" x2="23.2798" y2="14.4527" gradientUnits="userSpaceOnUse">
<stop stop-color="#65B895"/>
<stop offset="0.0685" stop-color="#62BD95"/>
<stop offset="0.4762" stop-color="#50DB97"/>
<stop offset="0.8009" stop-color="#44ED98"/>
<stop offset="1" stop-color="#40F498"/>
</linearGradient>
</defs>
</svg>
