<svg width="14" height="15" viewBox="0 0 14 15" fill="none" xmlns="http://www.w3.org/2000/svg">
<path d="M11.297 1.57815H10.7748V1.04974C10.7748 0.74784 10.5301 0.503113 10.2282 0.503113C9.92631 0.503113 9.68158 0.74784 9.68158 1.04974V1.57815H4.31839V1.04974C4.31839 0.74784 4.07366 0.503113 3.77176 0.503113C3.46985 0.503113 3.22513 0.74784 3.22513 1.04974V1.57815H2.70296C1.21254 1.57815 0 2.79068 0 4.28107V11.7939C0 13.2843 1.21254 14.4969 2.70296 14.4969H11.2971C12.7875 14.4969 14 13.2843 14 11.7939V4.28107C14 2.79068 12.7875 1.57815 11.297 1.57815ZM2.70296 2.67141H3.22513V3.73734C3.22513 4.03924 3.46985 4.28397 3.77176 4.28397C4.07366 4.28397 4.31839 4.03924 4.31839 3.73734V2.67141H9.68161V3.73734C9.68161 4.03924 9.92634 4.28397 10.2282 4.28397C10.5301 4.28397 10.7749 4.03924 10.7749 3.73734V2.67141H11.2971C12.1846 2.67141 12.9067 3.39351 12.9067 4.28107V4.80327H1.09326V4.28107C1.09326 3.39351 1.81536 2.67141 2.70296 2.67141ZM11.297 13.4036H2.70296C1.81536 13.4036 1.09326 12.6815 1.09326 11.7939V5.89653H12.9067V11.7939C12.9067 12.6815 12.1846 13.4036 11.297 13.4036Z" fill="#4F5864"/>
</svg>
