<svg width="20" height="20" viewBox="0 0 20 20" fill="none" xmlns="http://www.w3.org/2000/svg">
<path d="M9.60899 19.8272C9.40433 19.8013 9.19798 19.783 8.99502 19.7437C6.07378 19.2423 4.10618 17.6169 3.14234 14.8593C2.61074 13.3376 2.7636 11.8334 3.38352 10.3518C3.99182 8.91227 4.72899 7.52883 5.58634 6.21782C6.82701 4.30668 8.1127 2.42396 9.38395 0.535384C9.7007 0.064912 10.2816 0.0465294 10.5958 0.513659C12.3256 3.07827 14.1624 5.57771 15.6408 8.29859C16.1809 9.29051 16.6599 10.3092 16.9724 11.3964C17.2094 12.2179 17.2455 13.083 17.0777 13.9209C16.5928 16.4278 15.1424 18.1969 12.7969 19.2548C12.0852 19.5718 11.3198 19.7554 10.5397 19.7963C10.489 19.803 10.4388 19.8131 10.3894 19.8264L9.60899 19.8272ZM9.99877 2.12145C9.96565 2.16407 9.94102 2.19165 9.92064 2.22173C8.88802 3.76351 7.83671 5.29275 6.82956 6.85041C6.04236 8.06294 5.32054 9.31307 4.76007 10.6459C4.3499 11.622 4.10024 12.6139 4.29555 13.6877C4.52144 14.9236 5.05983 15.9916 5.98461 16.8532C6.8885 17.6966 8.0425 18.2339 9.27842 18.3868C10.5143 18.5396 11.7676 18.3001 12.8555 17.703C14.1564 16.9768 15.0243 15.8922 15.488 14.5025C15.8073 13.5423 15.8812 12.5671 15.5729 11.5777C15.1814 10.3434 14.5768 9.20861 13.9255 8.09553C12.7442 6.0791 11.4016 4.16379 10.0879 2.23176C10.0599 2.20084 10.0336 2.16825 9.99537 2.12145H9.99877Z" fill="white"/>
</svg>
