<svg width="20" height="20" viewBox="0 0 20 20" fill="none" xmlns="http://www.w3.org/2000/svg">
<g clip-path="url(#clip0_1_15620)">
<path d="M19.925 6.92707C19.925 9.01084 18.2296 10.7063 16.1458 10.7063H3.90625C3.51619 10.7063 3.2 10.3901 3.2 10C3.2 9.60994 3.51619 9.29375 3.90625 9.29375H16.1458C17.4509 9.29375 18.5125 8.23212 18.5125 6.92707C18.5125 5.62202 17.4509 4.56039 16.1458 4.56039C14.8408 4.56039 13.7791 5.62202 13.7791 6.92707C13.7791 7.31713 13.463 7.63332 13.0729 7.63332C12.6828 7.63332 12.3666 7.31713 12.3666 6.92707C12.3666 4.8433 14.062 3.14789 16.1458 3.14789C18.2296 3.14793 19.925 4.8433 19.925 6.92707ZM7.42188 7.63332H0.78125C0.391182 7.63332 0.075 7.31717 0.075 6.92711C0.075 6.53705 0.391187 6.22086 0.78125 6.22086H7.42188C8.72693 6.22086 9.78856 5.15923 9.78856 3.85418C9.78856 2.54913 8.72693 1.4875 7.42188 1.4875C6.11682 1.4875 5.0552 2.54913 5.0552 3.85418C5.0552 4.24424 4.73901 4.56043 4.34895 4.56043C3.95888 4.56043 3.6427 4.24424 3.6427 3.85418C3.6427 1.77041 5.3381 0.075 7.42188 0.075C9.50565 0.075 11.2011 1.77041 11.2011 3.85414C11.2011 5.93791 9.50565 7.63332 7.42188 7.63332ZM0.78125 12.3667H13.0729C15.1567 12.3667 16.8521 14.062 16.8521 16.1458C16.8521 18.2296 15.1567 19.925 13.0729 19.925C10.9892 19.925 9.29375 18.2296 9.29375 16.1458C9.29375 15.7558 9.60994 15.4396 10 15.4396C10.3901 15.4396 10.7063 15.7558 10.7063 16.1458C10.7063 17.4509 11.7679 18.5125 13.0729 18.5125C14.378 18.5125 15.4396 17.4509 15.4396 16.1459C15.4396 14.8408 14.378 13.7792 13.0729 13.7792H0.78125C0.391187 13.7792 0.075 13.463 0.075 13.0729C0.075 12.6829 0.391187 12.3667 0.78125 12.3667Z" fill="white" stroke="white" stroke-width="0.15"/>
</g>
<defs>
<clipPath id="clip0_1_15620">
<rect width="20" height="20" fill="white"/>
</clipPath>
</defs>
</svg>
