<svg width="151" height="80" viewBox="0 0 151 80" fill="none" xmlns="http://www.w3.org/2000/svg">
<path fill-rule="evenodd" clip-rule="evenodd" d="M36.6943 30.3995C36.5822 30.6581 36.4328 30.5842 36.2833 30.5473C36.1338 30.5103 35.9096 30.3256 36.0217 30.732C36.0217 30.769 35.947 30.8429 35.947 30.8429C35.3491 30.5103 35.1249 31.0276 34.7513 31.2862C34.5271 31.434 34.2281 31.471 33.9666 31.1754C34.4523 31.1754 34.6392 30.8798 34.7139 30.5103C34.7513 30.2517 34.9007 30.03 35.1249 30.1408C35.6107 30.3995 36.1712 30.2886 36.6943 30.3995Z" fill="white"/>
<path fill-rule="evenodd" clip-rule="evenodd" d="M1.64415 79.0966C1.94308 78.9858 2.05518 78.6902 2.24202 78.5054C2.46622 79.2074 2.24202 79.6878 1.68151 79.7617C1.41995 79.7986 1.27048 79.7247 1.30784 79.4291C1.38258 79.1335 1.64415 78.7641 1.00891 78.838L0.934174 78.6902C1.12101 78.5424 1.12101 78.2099 1.38258 78.136C1.56941 78.099 1.41995 78.3207 1.45731 78.3207C1.98045 78.5424 1.56941 78.8749 1.64415 79.0966Z" fill="white"/>
<path fill-rule="evenodd" clip-rule="evenodd" d="M12.2938 25.4854C12.2191 25.7441 12.518 25.9288 12.3312 26.2983C11.9575 25.5593 11.3596 24.9312 11.5465 24.0075C11.7707 24.3031 12.0322 24.5248 12.1443 24.8204C12.2564 25.0051 11.9575 25.3376 12.2938 25.4854Z" fill="white"/>
<path fill-rule="evenodd" clip-rule="evenodd" d="M15.8435 71.5962C15.6193 71.0051 16.1425 70.7095 16.3293 70.303C16.3667 70.2291 16.5535 70.1922 16.6282 70.2661C16.7403 70.3769 16.7403 70.5617 16.6656 70.6725C16.404 71.0051 16.2546 71.3745 15.8435 71.5962Z" fill="white"/>
<path fill-rule="evenodd" clip-rule="evenodd" d="M13.4147 67.3842C13.2652 67.6058 13.3026 67.8275 13.041 67.9014C12.9663 67.6059 12.4431 67.6797 12.4431 67.3103C12.4431 67.1255 12.5926 66.9777 12.7794 67.0516C13.0036 67.1255 13.2652 67.1994 13.4147 67.3842Z" fill="white"/>
<path fill-rule="evenodd" clip-rule="evenodd" d="M20.7761 61.0661C20.6266 61.6203 20.365 61.9159 20.1782 62.2115C20.0661 62.3593 19.9166 62.544 19.6924 62.3593C19.543 62.2115 19.6924 62.0637 19.8045 61.9159C20.1035 61.6942 20.4024 61.4356 20.7761 61.0661Z" fill="white"/>
<path fill-rule="evenodd" clip-rule="evenodd" d="M30.9773 51.7183C30.9399 52.1617 30.7904 52.5681 30.4168 53.0484C30.2673 52.3464 30.6783 52.0509 30.9773 51.7183Z" fill="white"/>
<path fill-rule="evenodd" clip-rule="evenodd" d="M38.5253 31.471C38.3385 31.471 38.2637 31.3601 38.2264 31.2493C38.1516 31.1015 38.0022 30.9167 38.1516 30.732C38.2637 30.5842 38.4132 30.5842 38.5627 30.6212C38.6 30.6212 38.7495 30.6581 38.6374 30.6951C38.189 30.8798 38.8242 31.2493 38.5253 31.471Z" fill="white"/>
<path fill-rule="evenodd" clip-rule="evenodd" d="M7.39867 72.9263C7.17447 72.9263 6.98763 72.9263 7.025 72.6308C7.06237 72.3721 7.21183 72.2982 7.4734 72.2982C7.77234 72.2982 7.73497 72.446 7.39867 72.9263Z" fill="white"/>
<path fill-rule="evenodd" clip-rule="evenodd" d="M11.6586 69.3055C11.8454 69.0838 11.6212 68.6773 11.9949 68.6773C12.1817 68.6773 12.2938 69.0099 12.2564 69.1577C12.1817 69.5271 11.8828 69.1577 11.6586 69.3055Z" fill="white"/>
<path fill-rule="evenodd" clip-rule="evenodd" d="M11.8454 26.1505C11.9949 26.2983 12.2938 26.2613 12.2938 26.5569C12.2938 26.7047 12.1443 26.8155 11.9575 26.7786C11.7707 26.7416 11.6586 26.6308 11.6586 26.4091C11.6586 26.2983 11.6586 26.1505 11.8454 26.1505Z" fill="white"/>
<path fill-rule="evenodd" clip-rule="evenodd" d="M36.545 31.6187C36.5076 31.6557 36.4329 31.7296 36.3955 31.7665C36.3581 31.7296 36.3208 31.7296 36.2834 31.6926C36.0592 31.6188 35.9471 31.434 35.9471 31.1754C35.9471 31.1384 36.1339 31.1015 36.2087 31.1015C36.545 31.1384 36.545 31.3601 36.545 31.6187Z" fill="white"/>
<path fill-rule="evenodd" clip-rule="evenodd" d="M42.1873 32.5055C41.8136 32.7272 41.5894 32.9119 41.3279 32.6902C41.2905 32.6533 41.3279 32.4685 41.3652 32.3946C41.6268 32.0991 41.7763 32.4685 42.1873 32.5055Z" fill="white"/>
<path fill-rule="evenodd" clip-rule="evenodd" d="M11.4343 74.8107C11.2848 74.7737 11.1353 74.6629 11.2101 74.552C11.2848 74.3673 11.509 74.2934 11.7332 74.2934C11.8453 74.2934 11.9948 74.2934 11.9574 74.4412C11.8453 74.6998 11.5837 74.6998 11.4343 74.8107Z" fill="white"/>
<path fill-rule="evenodd" clip-rule="evenodd" d="M12.9663 73.5175C12.9663 73.3697 12.9289 73.2219 12.9663 73.148C13.1158 73.0002 13.3026 72.9263 13.4894 72.8155C13.4894 72.8155 13.5642 72.8894 13.6015 72.9633C13.6389 73.2219 13.3773 73.2219 13.2279 73.3328C13.1531 73.3697 13.0784 73.4066 12.9663 73.5175Z" fill="white"/>
<path fill-rule="evenodd" clip-rule="evenodd" d="M0.672606 79.4291C0.597872 79.6139 0.597872 79.6508 0.597872 79.6508C0.336303 79.6139 0.411037 80.0942 0.112101 79.9834C0.037367 79.9834 0 79.7986 0 79.7986C0.186835 79.6878 0.37367 79.5769 0.672606 79.4291Z" fill="white"/>
<path fill-rule="evenodd" clip-rule="evenodd" d="M34.3776 30.2517C34.1161 30.1039 33.8545 30.1778 33.8171 29.8822C33.8171 29.8083 33.8171 29.6975 33.9292 29.6975C34.1534 29.7714 34.3029 29.9191 34.3776 30.2517Z" fill="white"/>
<path fill-rule="evenodd" clip-rule="evenodd" d="M26.6053 28.1826C26.6427 28.1826 26.6801 28.1826 26.7174 28.1826C26.9417 28.1826 27.1659 28.1457 27.2032 28.4043C27.2032 28.4412 27.1285 28.4782 27.0911 28.5151C26.979 28.4043 26.6053 28.5521 26.6053 28.1826Z" fill="white"/>
<path fill-rule="evenodd" clip-rule="evenodd" d="M21.6728 27.222C21.8597 27.2589 22.0091 26.9264 22.2334 27.1481C22.2707 27.185 22.2334 27.3328 22.196 27.3698C21.9718 27.5175 21.8223 27.2959 21.6728 27.222Z" fill="white"/>
<path fill-rule="evenodd" clip-rule="evenodd" d="M27.6515 29.1063C27.39 29.4019 27.1658 29.4019 26.8668 29.1063C27.1284 29.1063 27.3526 29.1063 27.6515 29.1063Z" fill="white"/>
<path fill-rule="evenodd" clip-rule="evenodd" d="M5.08194 77.7665C5.26877 77.434 5.45561 77.4709 5.67981 77.5448C5.71718 77.5448 5.71718 77.6926 5.71718 77.6926C5.53034 77.8773 5.34351 77.6926 5.08194 77.7665Z" fill="white"/>
<path fill-rule="evenodd" clip-rule="evenodd" d="M33.0324 50.0926C33.3687 50.3882 33.2939 50.536 33.2192 50.7207C32.9203 50.6099 33.1071 50.4252 33.0324 50.0926Z" fill="white"/>
<path fill-rule="evenodd" clip-rule="evenodd" d="M33.4434 29.3649C33.3687 29.6236 33.1818 29.6236 32.8455 29.7714C33.0324 29.4019 33.1818 29.328 33.4434 29.3649Z" fill="white"/>
<path fill-rule="evenodd" clip-rule="evenodd" d="M21.7102 27.6653C21.9344 27.4437 22.196 27.5914 22.4202 27.5914C22.196 27.6653 21.9718 27.8131 21.7102 27.6653Z" fill="white"/>
<path fill-rule="evenodd" clip-rule="evenodd" d="M40.8048 32.6163C40.8048 32.2838 40.8048 32.0991 40.8048 31.8035C40.9169 32.0991 41.0664 32.2469 40.8048 32.6163Z" fill="white"/>
<path fill-rule="evenodd" clip-rule="evenodd" d="M39.4969 31.0276C39.1232 31.2493 38.9738 31.1015 38.6748 31.0276C38.9738 31.0276 39.1232 31.0276 39.4969 31.0276Z" fill="white"/>
<path d="M49.0255 0.471812C49.0255 0.360969 48.9508 0.250126 48.8387 0.287073C47.9793 0.545708 47.2319 0.656551 46.3351 0.102335C45.8867 -0.1563 45.0646 0.139282 44.4294 0.287073C43.6447 0.471812 42.8226 0.582655 42.1874 1.02603C41.739 1.35856 41.2906 1.61719 40.7674 1.80193C40.4311 1.91277 40.1322 2.02362 40.0948 2.50394C40.0575 2.72562 39.7959 2.91036 39.4596 2.68868C39.2354 2.54089 38.8991 2.2453 38.6749 2.79952C38.6002 3.02121 38.3012 2.98426 38.1144 2.98426C37.3297 2.98426 36.5823 3.02121 35.835 3.42763C35.5361 3.61237 35.1624 3.64932 34.8261 3.72321C34.6766 3.76016 34.4898 3.79711 34.4898 3.9449C34.4524 4.60996 33.9293 4.64691 33.4435 4.7208C33.1072 4.7947 32.7335 4.7947 32.7709 5.31197C32.7709 5.60755 32.5467 5.79229 32.2104 5.75534C31.9862 5.71839 31.7246 5.71839 31.6499 5.94008C31.5752 6.3465 31.2762 6.27261 31.0147 6.38345C30.5663 6.60514 30.0058 6.12482 29.5573 6.67903C28.6605 7.78747 27.3901 8.37863 26.0448 8.822C24.326 9.37622 22.6071 9.89349 21.1871 11.0758C20.9629 11.2606 20.8135 11.4453 21.075 11.63C21.5234 11.8887 21.1871 12.0365 21.0377 12.2212C20.9629 12.369 20.664 12.2951 20.7014 12.5537C20.8135 12.6646 21.0377 12.5168 21.1124 12.7015C20.253 12.7754 20.253 12.7754 20.1035 12.1842C19.7672 12.1473 19.8419 12.7385 19.543 12.6646C18.9825 12.5537 19.2441 13.034 19.0946 13.2188C19.0199 13.3296 18.9451 13.3666 18.8704 13.1449C18.7583 12.8124 18.4594 13.034 18.2725 12.9971C18.1604 12.9971 18.1604 13.034 18.1231 13.1449C18.0483 13.6622 17.4504 14.2903 17.0394 14.1794C16.3294 14.0316 16.1426 14.5489 15.9558 14.8814C15.5447 15.6204 15.1337 16.3224 14.2369 16.6919C14.6853 16.6919 14.8348 16.7658 14.6853 17.2091C14.5358 17.6895 14.05 17.8373 13.7885 18.0959C12.8169 18.9826 12.1443 19.9433 12.0322 21.2364C12.0322 21.4212 12.1817 21.6798 11.808 21.7168C11.2475 21.7907 11.3596 22.0862 11.5838 22.4927C11.7333 22.7513 12.0696 22.936 11.9575 23.3055C11.8454 23.7489 12.0696 23.638 12.3312 23.5272C12.4433 23.4903 12.518 23.3425 12.6675 23.4533C12.7796 23.9706 12.8917 24.4878 13.0038 25.0051C13.0411 25.116 13.3027 25.1899 13.0785 25.3376C12.9664 25.4485 12.8169 25.4115 12.6675 25.3376C12.5554 25.3007 12.3312 24.9682 12.2938 25.4115C12.8169 25.818 12.8543 26.4461 12.8543 26.9633C12.8543 27.222 13.1159 27.6284 12.8543 27.7392C12.4059 27.924 12.7422 28.1457 12.8169 28.2196C13.0038 28.4782 13.1532 28.7738 13.5269 28.8107C13.639 28.8107 13.7137 28.7738 13.6764 28.6629C13.5643 28.3304 13.7137 28.3674 13.8632 28.5521C14.1622 28.8477 14.3864 29.1802 14.6853 29.5127C14.4237 29.6236 14.1621 29.4758 13.9379 29.6605C13.9753 29.7344 14.0127 29.8083 14.05 29.8453C14.0874 29.8822 14.1622 29.9561 14.1995 29.9192C14.9842 29.6975 15.0963 30.2517 15.2084 30.8059C15.2458 30.9168 15.2084 31.0645 15.3953 31.1015C15.9558 31.2123 16.2547 31.7296 16.6284 32.0621C17.0394 32.4316 17.3757 32.838 17.9362 33.0228C18.6836 33.2445 19.4309 33.54 20.1782 33.8356C20.5519 33.9834 20.9256 34.2051 21.374 34.1682C21.785 34.1312 22.1213 34.0573 22.4203 34.4637C22.5697 34.6854 22.906 34.6115 23.1676 34.3898C23.3544 34.2421 23.616 34.0204 23.8028 34.2051C24.1018 34.5376 24.4754 34.5007 24.8117 34.6115C27.1659 35.3874 29.52 36.0894 31.9115 36.7545C33.593 37.1979 35.3492 37.3457 36.8813 38.3433C37.5912 38.8236 38.4133 39.1192 39.0859 39.6364C40.0201 40.3015 40.1322 40.671 39.7959 41.4838C39.3475 42.5553 38.787 43.5159 38.0397 44.4396C37.6286 44.9569 36.8065 45.4372 37.6286 46.2501C37.8154 46.4348 37.5539 46.5456 37.4418 46.6195C37.2923 46.7304 37.2549 46.5457 37.1802 46.4718C36.9186 46.287 36.9934 46.0653 37.0307 45.8067C36.6944 46.5826 35.6108 46.7304 35.4613 47.691C35.6108 47.691 35.7976 47.728 36.0218 47.728C35.7229 48.2822 35.3866 47.7649 35.125 47.8019C34.7887 47.8388 35.0129 48.5778 34.4151 48.4669C34.1535 48.43 33.9666 48.5778 33.7798 48.7256C33.6303 48.8364 33.5556 48.9842 33.593 49.1689C33.8919 50.0926 33.5556 50.9424 33.3314 51.7922C33.294 51.94 33.294 52.1248 33.1072 52.0878C32.9204 52.0509 32.9204 51.8292 32.8456 51.6814C32.8083 51.5705 33.1072 51.4967 32.9204 51.3858C32.7709 51.275 32.6588 51.4597 32.5467 51.5336C32.1357 51.8292 31.9488 52.3834 31.351 52.4573C31.3136 52.4573 31.2389 52.5681 31.2389 52.6051C31.2389 52.7529 31.351 52.642 31.4257 52.642C31.6125 52.6051 31.7246 52.7159 31.7246 52.8637C31.7246 52.9746 31.6125 53.0115 31.5378 52.9746C31.3883 52.9376 31.0894 53.1223 31.052 52.8637C30.9773 52.3464 30.6784 52.5681 30.641 52.7898C30.5289 53.1962 30.2673 53.0854 30.0058 53.1223C29.7442 53.1223 29.3705 52.9376 29.2584 53.4179C29.221 53.5288 29.0716 53.4918 28.9595 53.4918C28.5858 53.5657 28.2121 53.6396 27.8758 53.7505C27.278 53.9352 27.2032 54.1569 27.5022 54.748C27.7264 55.1914 27.6143 55.487 27.1285 55.524C26.8296 55.5609 26.8296 55.6717 26.7922 55.9304C26.7175 56.3368 26.7548 56.9649 26.2691 57.1497C25.3349 57.4452 24.9238 58.1472 24.737 58.9231C24.5128 59.736 23.8776 59.8099 23.3171 60.0316C23.2423 60.0685 23.1676 60.1055 23.0929 60.0316C22.7192 59.8099 22.2334 60.3641 21.8971 59.8838C21.8597 59.8468 21.7476 59.9207 21.7103 60.0316C21.5982 60.2902 21.374 60.5858 21.4861 60.8444C21.5982 61.14 21.4487 61.177 21.2619 61.3247C20.5893 61.6942 20.0661 62.2115 19.9167 62.9874C19.8419 63.283 19.7672 63.3938 19.4309 63.246C19.2067 63.1352 18.9078 63.1721 18.8704 63.5047C18.7957 63.9111 18.4967 63.9111 18.2352 63.8372C17.712 63.6894 17.6746 64.2067 17.3757 64.3914C17.5625 64.6131 17.4504 64.65 17.2262 64.7978C16.2921 65.3521 15.059 65.3151 14.3864 66.3127C14.349 66.3866 14.1995 66.3866 14.1248 66.4235C13.6764 66.6083 13.4895 67.3472 13.7511 67.7536C13.9753 67.4581 13.9379 67.0886 13.9753 66.6822C14.1995 66.83 14.6479 66.7191 14.5358 67.0886C14.4611 67.3842 14.4611 67.9015 14.05 67.9015C13.4522 67.9015 12.7796 68.197 12.2564 67.6428C12.1443 67.532 12.0322 67.495 11.9201 67.6428C11.8454 67.7537 11.8454 67.9014 11.9949 67.9753C12.2191 68.1601 12.4433 68.4187 12.8169 68.3448C12.9664 68.3079 13.1159 68.3818 13.1532 68.5665C13.1906 68.7512 13.0038 68.8621 12.8917 68.936C12.5554 69.0838 12.8169 68.5296 12.518 68.6034C11.8828 69.2316 12.6675 69.8597 12.4806 70.4878C12.1817 70.4139 12.0696 70.1922 11.9575 70.0075C11.8828 69.8966 11.6959 69.6749 11.6212 69.7488C11.3596 70.0814 11.0233 69.8597 10.7244 69.9705C10.7618 70.2292 10.687 70.4878 10.4255 70.5247C10.2013 70.5617 9.93968 70.4878 9.71548 70.4139C9.60338 70.3769 9.60338 70.1922 9.71548 70.1922C10.0144 70.1553 9.86495 69.4902 10.276 69.7858C10.4255 69.8966 10.5376 70.0075 10.7244 70.0075C10.6497 69.8966 10.5749 69.7858 10.5002 69.6749C10.4255 69.5641 10.7991 69.2685 10.5002 69.3055C10.2013 69.3424 9.64075 69.2685 9.64075 69.4532C9.60338 69.9336 9.08024 69.9705 9.04287 70.34C9.15498 70.4139 9.45391 70.1922 9.34181 70.5617C9.26708 70.8573 9.22971 70.8942 9.56601 70.8573C9.67811 70.8573 9.75285 70.7834 9.82758 70.9312C9.90231 71.0789 9.75285 71.1159 9.67811 71.1529C9.49128 71.2637 9.26708 71.5962 9.04287 71.1898C9.00551 71.1159 8.78131 71.1159 8.70657 71.2637C8.5571 71.744 8.1087 71.9657 7.62293 72.1874C8.51974 72.2613 8.51974 72.2613 8.1087 72.9633C8.07133 73.0002 7.95923 73.0741 8.07133 73.148C8.3329 73.3697 8.18343 73.4067 7.95923 73.4067C7.7724 73.4067 7.58556 73.4067 7.39873 73.4067C7.36136 73.185 7.58556 72.9263 7.32399 72.7785C7.17453 73.1111 7.02506 73.4436 6.87559 73.7761C6.80086 73.9239 6.76349 74.1087 6.53929 73.9609C6.27772 73.7761 6.05352 73.9978 5.79195 74.1456C5.82931 73.887 6.05352 73.6653 5.82931 73.5914C5.64248 73.5175 5.45564 73.6653 5.38091 73.9239C5.34354 73.9978 5.30618 74.0348 5.30618 74.1087C5.30618 74.3673 5.08197 74.4412 4.93251 74.4412C4.67094 74.4412 4.89514 74.1087 4.67094 73.9978C4.5962 74.2934 3.9236 74.2195 4.372 74.8476C4.63357 75.1802 4.07307 75.5866 3.51256 75.4388C3.17626 75.3279 2.83996 75.254 2.76522 75.6974C2.69049 76.0299 2.61575 76.3994 2.98942 76.732C3.21363 76.1777 3.6994 75.993 4.07307 75.6605C4.18517 76.03 4.63357 76.2886 4.2599 76.732C4.1478 76.8428 4.11043 77.0645 3.88623 76.9536C3.6994 76.8798 3.66203 76.695 3.77413 76.5103C3.84886 76.3625 3.88623 76.2147 3.6994 76.0669C3.66203 76.1408 3.62466 76.2147 3.62466 76.2516C3.5873 76.6581 3.5873 77.0645 3.5873 77.434C3.5873 77.7296 3.36309 77.7296 3.28836 77.8034C3.10153 77.9143 3.13889 77.6926 3.13889 77.5818C3.13889 77.3231 2.95206 77.3231 2.80259 77.3601C2.57839 77.397 2.61575 77.6187 2.65312 77.6926C2.80259 78.0251 2.69049 78.2838 2.50365 78.5424C2.83996 78.6902 3.06416 78.5424 3.21363 78.3577C3.47519 78.0621 3.73676 78.4315 3.99833 78.3207C4.0357 78.3207 4.0357 78.2838 4.0357 78.2838C3.99833 77.8404 4.372 77.7665 4.63357 77.5818C5.11934 77.2862 4.33464 77.0275 4.63357 76.7689C4.67094 76.732 4.7083 76.732 4.74567 76.732C4.93251 76.8058 4.89514 77.1753 5.19408 77.0645C5.38091 76.9906 5.41828 76.7689 5.34354 76.6211C5.00724 76.0299 5.49301 75.9561 5.82931 75.6605C5.86668 75.993 5.86668 76.2516 5.90405 76.5842C5.97878 76.5103 6.05352 76.5103 6.09088 76.4364C6.35245 76.1038 6.35245 75.4018 7.09979 75.6605C7.17453 75.6974 7.43609 75.5127 7.32399 75.254C7.28663 75.1802 7.17453 74.6629 7.69766 74.9215C7.84713 74.9954 7.9966 74.3673 8.29554 74.8107C8.3329 74.7737 8.445 74.7368 8.445 74.6998C8.445 74.1826 9.56601 74.4781 9.15498 73.6653L9.22971 73.5914C9.79021 73.85 9.97705 73.2589 10.3134 73.0741C10.5749 73.4806 9.97705 73.5545 10.0891 73.9609C10.3134 73.7761 10.5376 73.6653 10.7991 73.887C10.986 74.0348 11.1728 73.8131 11.1354 73.6653C10.8365 72.7785 12.0322 72.7416 12.0322 72.0396C12.0696 72.0396 12.1443 72.0396 12.1443 72.0765C12.3685 72.3352 12.7796 71.781 13.0038 72.2613C13.0411 72.3721 13.3027 72.2613 13.3401 71.9657C13.3774 71.5223 13.8258 71.4854 14.1248 71.4115C14.3864 71.3376 14.7227 71.3006 15.0216 71.4484C15.2458 71.5593 15.2832 71.4115 15.2832 71.2637C15.2832 71.1159 15.2832 70.9312 15.2832 70.7464C15.0963 70.6356 14.9842 70.1922 14.8348 70.4139C14.6106 70.6725 14.0874 70.6356 14.1248 71.1159C13.9006 71.0051 13.7137 70.8942 13.4895 70.8203C13.9379 70.4508 14.4611 70.2292 14.9842 70.1553C15.5074 70.0814 15.2458 70.4878 15.2832 70.7095V70.7464C15.5821 70.7095 15.8063 70.5247 15.8063 70.2292C15.8063 69.9336 15.7689 69.601 16.2547 69.8227C16.3668 69.8597 16.6284 69.8227 16.6284 69.5641C16.6284 69.1577 16.8899 68.9729 17.2636 68.9729C17.5625 68.9729 17.6746 68.8621 17.5999 68.6034C17.4504 68.0123 17.8615 68.2709 18.1604 68.234C17.8988 68.7143 17.712 69.1577 17.301 69.4532C17.1515 69.601 17.0394 69.7858 16.9647 69.9705C16.9273 70.0814 16.9273 70.303 17.1889 70.1922C17.5252 70.0075 17.9736 69.8966 18.2352 69.601C18.7209 69.0468 19.3188 68.6404 19.8793 68.1601C20.5145 67.6059 21.4487 67.1625 21.5608 66.2757C21.7103 65.389 22.2334 65.4629 22.8313 65.389C22.9808 65.3521 23.0929 65.2782 23.2423 65.2412C22.8687 65.2412 22.6445 65.0195 22.5324 64.687C22.495 64.6131 22.5697 64.5023 22.6071 64.4653C22.8313 64.3914 22.7939 64.7978 23.0555 64.7239C23.0929 64.2436 23.0929 64.2436 23.6907 64.2806C23.5786 64.4284 23.3544 64.5761 23.6534 64.7609C23.8402 64.8717 24.027 64.9826 24.2512 64.8348C24.4381 64.687 24.5875 64.7239 24.6623 64.9826C25.2975 64.5392 25.1107 63.6894 25.5217 63.1352C26.0448 63.6525 26.0448 63.6155 26.4185 62.9504C26.568 62.6918 26.5306 62.3593 26.8669 62.1745C28.2121 61.3986 29.4826 60.5858 30.9399 60.0316C31.2762 59.8838 31.6499 59.7729 31.3136 59.2926C31.2389 59.2187 31.2762 58.9601 31.4631 59.034C32.2104 59.3296 32.6214 58.7015 33.1446 58.4059C34.1535 57.7408 34.9008 56.8171 35.6108 55.8934C35.7603 55.7087 35.9471 55.4501 36.246 55.6717C36.6571 56.0043 36.8813 55.7456 37.1428 55.4501C37.6286 54.8958 37.5912 54.1199 38.077 53.6027C38.3386 53.7135 38.5254 54.6003 38.8617 53.6396C38.8617 53.6027 38.9365 53.5657 39.0112 53.5288C40.2817 52.7159 41.0664 51.6075 41.029 50.0926C41.029 49.9079 41.029 49.7601 41.1785 49.6493C41.2532 49.5754 41.3653 49.6123 41.4027 49.6862C41.4774 49.834 41.6642 50.0926 41.5148 50.2035C40.9916 50.6099 41.6642 50.9055 41.5521 51.275C41.7016 50.9424 41.6269 50.4252 42.0753 50.3882C42.9347 50.3513 42.8974 49.6862 43.0095 49.2059C43.0842 48.7625 43.4205 48.2822 43.8315 48.393C44.1305 48.4669 44.0931 48.3191 44.1678 48.1713C44.691 47.3954 45.1767 46.5826 45.6625 45.8067C46.7835 43.9224 47.2693 41.8533 47.0451 39.6734C47.0451 39.5625 47.0451 39.4147 46.8956 39.4517C46.1109 39.6364 46.7088 39.0083 46.522 38.8605C46.8583 38.491 46.5967 38.1585 46.4099 37.826C46.0362 37.1979 45.4757 36.8284 44.8778 36.4589C44.691 36.3481 44.4668 36.2003 44.6162 35.9786C44.9152 35.4613 44.8778 34.8702 44.9899 34.3159C45.0273 34.2051 45.0646 33.9834 44.8404 33.9834C44.6536 33.9465 44.5415 34.0573 44.4668 34.2421C44.392 34.5007 44.2426 34.7593 44.1305 34.981C44.0557 35.1288 44.0184 35.3505 43.8315 35.3135C43.6073 35.2766 43.4952 35.1288 43.4579 34.8702C43.4205 34.5746 43.3084 34.279 43.2337 33.9834C43.4579 34.0573 43.6073 34.1312 43.7568 34.279C43.8315 34.3529 44.0184 34.3898 44.0931 34.2421C44.3173 33.8356 43.6821 33.3923 44.0557 32.9858C43.6821 32.9119 43.271 33.3553 42.9721 32.838C42.9721 32.838 42.8974 32.875 42.86 32.875C42.3742 33.2814 42.3742 33.3184 41.8884 32.9489C41.739 32.838 41.6269 32.7641 41.44 32.875C41.2158 32.9858 41.029 32.9119 40.8048 32.8011C40.3564 32.5794 40.3564 31.9882 39.8333 31.8404C40.0948 31.6927 40.319 31.9882 40.3938 31.6927C40.4311 31.5079 40.2069 31.3232 40.0575 31.2862C39.7585 31.2123 39.6464 31.5079 39.5343 31.6927C39.1607 32.4686 38.2639 32.6163 37.5912 32.0252C37.7407 31.9513 37.8528 31.8404 37.9649 31.8404C38.1891 31.8404 38.2639 31.6557 38.2639 31.5079C38.2639 31.2862 38.0397 31.3232 37.8528 31.3232C37.4044 31.2493 37.0307 31.434 36.6571 31.5818C36.5823 31.6188 36.545 31.6557 36.5076 31.7296C36.246 31.9882 35.9845 32.136 35.5734 31.9143C35.424 31.8404 35.1624 31.8035 35.0129 31.8774C34.4898 32.0991 34.1909 31.9143 33.9293 31.434C33.8172 31.2493 33.593 31.1015 33.8919 30.8798C34.0788 30.769 33.9667 30.6951 33.8172 30.6581C33.7051 30.6212 33.3314 30.5103 33.2193 30.5473C32.9951 30.6212 32.7709 30.6581 32.5093 30.5842C32.2478 30.5103 31.9115 30.3625 31.6499 30.9168C31.4631 31.2862 30.7157 31.1384 30.1926 30.8798C30.9026 30.6212 31.5752 30.2517 32.3225 30.3995C32.5467 30.4364 32.6214 30.3256 32.6214 30.1039C32.6214 29.8822 32.472 29.8822 32.3225 29.9192C32.0983 29.9192 31.9115 30.1409 31.6873 29.9931C31.8367 29.8822 31.9862 29.8453 32.1357 29.7714C32.3225 29.6975 32.6214 29.6605 32.6588 29.365C32.6588 29.328 32.6214 29.2172 32.6214 29.1802C32.3599 29.1433 32.173 29.2911 32.0236 29.4388C31.7994 29.7714 31.5004 29.5866 31.2762 29.4758C31.2015 29.4388 31.2762 29.1433 31.2389 28.9585C31.2015 28.8477 31.5378 28.8846 31.3136 28.7368C31.2389 28.6999 31.052 28.6629 30.9773 28.8107C30.9399 28.9216 30.9399 29.0324 30.9399 29.1802C30.4542 28.589 30.4168 28.589 29.9684 29.1063C29.8189 29.2911 29.6694 29.5497 29.3331 29.4388C29.3331 29.2911 29.6321 29.1802 29.4826 29.0324C29.3705 28.9585 29.0716 28.9216 28.9968 28.9955C28.6979 29.328 28.1374 29.4019 27.9879 29.8822C27.9506 30.067 27.8758 30.1039 27.689 30.1409C27.3153 30.2147 26.979 29.8083 26.6054 30.1039C26.1569 29.4019 25.858 30.1409 25.7833 30.2886C25.5964 30.6581 25.5964 30.2886 25.5591 30.2517C25.3722 29.9192 25.5964 29.6605 25.8206 29.5127C26.0448 29.365 26.0075 29.2172 25.9701 29.0324C25.9327 28.9585 25.858 28.8846 25.7833 28.8846C25.5591 28.8846 25.5591 29.1063 25.4843 29.2541C25.3722 29.5127 25.3722 29.7714 25.148 29.9931C24.8865 29.5866 24.326 29.5866 23.9897 29.2911C24.2139 28.9585 24.4381 29.328 24.6249 29.2541C24.7744 29.2172 24.9238 29.1802 24.9238 28.9955C24.9238 28.8107 24.737 28.8846 24.6249 28.8846C24.4007 28.8846 24.1391 28.8846 23.8402 28.8846C24.027 28.626 24.2139 28.589 24.4381 28.626C24.4007 28.3304 24.5128 28.0718 24.6249 27.7392C24.737 28.1087 24.6996 28.3674 24.4381 28.589V28.626C24.737 28.9216 24.9612 28.626 25.2228 28.5521C25.4096 28.5152 25.5964 28.2196 25.7459 28.4782C25.8954 28.7368 25.9701 28.6629 26.1196 28.5152C26.2691 28.3674 26.4185 28.2565 26.568 28.1087C26.3812 27.185 26.0822 28.0718 25.858 28.0348C25.7459 27.3328 25.2228 27.4437 24.6996 27.5176C24.5502 27.3328 24.9612 27.3698 24.8117 27.185C24.6996 27.0742 24.6249 27.0742 24.4754 27.1481C24.2512 27.2959 24.0644 27.1111 23.8776 27.0003C23.6534 26.8895 23.3171 26.8895 23.2797 26.9633C23.205 27.5176 22.5324 27.4067 22.3455 27.8131C22.2708 27.924 22.1587 28.1087 21.9345 28.0348C21.7103 27.924 21.6355 27.7762 21.6355 27.5545C21.0377 27.8131 20.4398 27.6654 19.8419 27.5545C19.6925 27.5176 19.4309 27.6284 19.4683 27.3328C19.5056 27.1481 19.2814 26.8525 19.6925 26.7786C19.9914 26.7047 20.1409 26.4461 20.3277 26.1874C20.3651 26.2613 20.4024 26.3352 20.4772 26.4091C20.5893 26.52 20.7014 26.7786 20.8508 26.5939C21.0377 26.4461 20.7761 26.3352 20.7014 26.2244C20.3277 25.6702 19.954 26.0027 19.6551 26.2613C19.4309 26.4461 19.2814 26.483 19.132 26.3352C19.0199 26.1874 19.132 26.0027 19.3188 25.9288C19.4683 25.8549 19.6177 25.781 19.5804 25.6332C19.543 25.4485 19.2814 25.5963 19.2067 25.5593C18.9078 25.3746 18.3473 25.4854 18.3846 25.079C18.4594 24.377 18.3473 24.0075 17.4131 24.1553C17.7494 23.9336 18.0483 24.1184 18.2352 23.8967C17.9362 23.7119 18.123 23.2686 17.9362 22.936C17.5625 22.271 18.1978 22.3818 18.5341 22.3079C18.5715 22.3079 18.6088 22.234 18.6088 22.1971C18.6836 21.3842 19.4683 20.9778 19.8046 20.3128C19.954 20.0172 20.2156 19.6846 19.6925 19.426C19.9167 19.3891 20.1035 19.3891 20.253 19.3521C21.0003 19.0935 21.5608 18.5762 21.9718 17.8742C22.1213 17.5786 22.4576 17.2461 22.6818 17.4308C22.9434 17.6525 23.0929 17.5417 23.205 17.4308C23.9149 16.9136 24.6249 16.4702 25.447 16.1377C26.1569 15.8421 26.5306 15.1031 27.0538 14.5489C27.2032 14.6597 26.9417 15.0662 27.3527 14.8814C27.8385 14.6597 28.4363 14.4381 28.6605 13.9577C28.8847 13.4035 29.5574 13.6252 29.8189 13.1818C29.8189 13.1449 30.0431 13.1818 30.0431 13.2188C30.1552 13.4774 30.3047 13.3296 30.4915 13.3296C31.351 13.2927 31.6499 12.6276 32.0236 12.0365C32.0609 11.5931 32.3972 11.3714 32.6588 11.1128C32.7335 11.0758 32.883 11.0389 32.9577 11.0758C33.0698 11.1128 33.0698 11.2606 33.0325 11.3714C32.8083 11.7409 32.3972 11.8517 32.0609 12.0734C32.0609 12.0734 32.0609 12.0734 32.0236 12.1104C32.0609 12.1842 31.8367 12.4059 32.2104 12.4059C32.5841 12.4059 32.7709 12.4059 32.9577 12.0734C33.0698 11.8887 33.294 11.4822 33.4435 12.0734C33.5182 12.332 33.6677 12.2212 33.7425 12.1104C33.9667 11.7409 34.2282 11.2606 34.004 10.8911C33.7425 10.4847 34.0414 10.4477 34.2282 10.3738C34.5272 10.263 34.9008 10.1891 35.0877 9.89349C34.9008 9.7457 34.6393 9.89349 34.4151 9.6718C34.9382 9.41317 35.0129 8.93285 35.125 8.45252C35.1624 8.34168 35.0503 7.9722 35.3866 8.08305C35.6855 8.15694 35.4613 8.41558 35.424 8.56337C35.3119 8.8959 35.1998 9.26538 35.5361 9.45011C35.835 9.63485 35.9845 9.85654 35.9845 10.1891C36.6571 10.1152 36.7318 9.37622 37.1802 9.19148C38.077 8.85895 38.3012 7.75052 39.2728 7.52883C39.3101 7.52883 39.3475 7.49188 39.3849 7.49188C39.6091 6.97461 39.6091 6.97461 40.0575 7.34409C40.319 6.60514 40.5432 6.19871 41.6642 6.3465C41.8511 6.38345 41.8885 6.30956 41.9258 6.19871C42.15 5.75534 42.5237 5.34891 42.6358 4.86859C42.7853 4.31438 43.0095 4.49912 43.3084 4.64691C43.4579 4.7208 43.4579 5.20112 43.7194 4.83165C43.8689 4.60996 43.9063 4.31438 43.6821 4.09269C43.6073 4.0188 43.4952 3.98185 43.4205 3.90795C43.3458 3.79711 43.1216 3.76016 43.2337 3.57542C43.3084 3.42763 43.4205 3.27984 43.6447 3.31679C43.8689 3.35374 43.7568 3.53847 43.7942 3.68627C43.8689 4.12964 44.2799 4.16659 44.5415 4.16659C44.8404 4.16659 44.6536 3.79711 44.691 3.57542C44.691 3.27984 44.392 2.98426 44.7657 2.76257C45.0273 2.91036 44.5789 3.35374 45.0646 3.42763C45.4757 3.46458 45.5878 3.169 45.6625 2.83647C45.6999 2.68868 45.7746 2.54089 45.8493 2.39309C45.8867 2.35615 45.8493 2.09751 45.9988 2.3192C46.1109 2.46699 46.2978 2.57783 46.4099 2.54089C46.5967 2.43004 46.522 2.28225 46.3351 2.17141C46.223 2.09751 46.3725 2.09751 46.4099 2.09751C46.8209 1.98667 47.1198 1.58024 47.5309 1.5433C48.054 1.50635 48.3529 1.09992 48.8013 0.952133C49.0629 0.693498 49.0255 0.582655 49.0255 0.471812ZM6.68876 74.8476C6.50192 75.0693 6.27772 75.1802 5.94142 75.1802C6.20298 75.1063 6.24035 74.7737 6.42719 74.6259C6.50192 74.552 6.53929 74.4412 6.68876 74.552C6.76349 74.6259 6.80086 74.7368 6.68876 74.8476ZM9.56601 73.3697C9.52865 73.4067 9.41654 73.4067 9.37918 73.3697C9.30444 73.0741 9.34181 72.7047 9.00551 72.5569C9.11761 72.3721 9.11761 72.1135 9.41654 71.9657C9.45391 72.4091 9.49128 72.7785 9.64075 73.148C9.71548 73.2589 9.60338 73.3328 9.56601 73.3697ZM16.6657 68.8621C16.4789 68.899 16.5536 68.7512 16.5536 68.6773C16.5536 68.5665 16.5536 68.4557 16.7031 68.4926C16.7778 68.4926 16.8152 68.6404 16.8899 68.7143C16.8899 68.8621 16.7405 68.8621 16.6657 68.8621ZM27.1285 57.8147C26.9417 58.0364 26.8296 57.5561 26.6427 57.4083C27.0538 57.1866 27.5022 57.1866 28.0627 57.2605C27.689 57.5191 27.3901 57.5561 27.1285 57.8147ZM28.5858 56.3368C28.1374 56.5585 28.1374 56.5585 27.9132 56.9649C27.4648 56.5954 27.6516 56.2999 28.0627 56.1521C28.5484 55.9673 28.5858 55.5978 28.5484 55.1914C28.4737 54.7111 28.6232 54.2677 29.0716 53.9352C28.6232 54.3416 29.1837 54.6742 29.221 55.0436C29.2584 55.4131 28.9595 56.1521 28.5858 56.3368ZM29.6321 55.0436C29.4826 54.785 29.7442 54.785 29.931 54.748C29.8563 54.8589 29.7442 54.9328 29.6321 55.0436ZM28.9221 31.0276C28.9595 30.9537 28.9595 30.8429 28.9968 30.6951C29.2958 30.8059 29.5574 30.8798 29.8189 31.0276C29.5947 31.1384 29.4452 31.2493 29.2958 31.3232C29.1463 31.3971 29.0716 31.7296 28.8474 31.5449C28.7353 31.434 28.81 31.2123 28.9221 31.0276ZM28.2495 30.5842C28.4363 30.6581 28.5858 30.769 28.5111 30.9168C28.399 31.1384 28.4363 31.3232 28.399 31.5449C28.1 31.471 27.9879 31.2123 27.9132 30.9537C27.8758 30.8059 28.1374 30.6951 28.2495 30.5842ZM28.2495 31.8035C27.6143 32.173 27.2032 31.9513 26.7922 31.6927C27.0164 31.5818 27.2406 31.6557 27.5395 31.7296C27.3527 31.3601 26.979 31.1384 26.7175 31.3232C26.2691 31.6557 26.4185 31.2123 26.1943 31.0645C26.7548 30.9906 27.1285 31.2493 27.5022 31.2493C28.0627 31.2123 27.689 31.8404 28.2495 31.8035ZM27.6143 30.769C27.6143 30.8429 27.6143 30.8798 27.5769 30.9537C27.3527 30.9168 27.1285 30.8429 26.7548 30.769C27.1659 30.732 27.3901 30.6581 27.6143 30.769ZM26.6427 30.4364C26.7922 30.6212 26.568 30.5473 26.4933 30.5842C26.4185 30.5842 26.3812 30.5842 26.157 30.5473C26.4185 30.5103 26.4933 30.2886 26.6427 30.4364ZM24.4754 30.9907C24.326 30.9907 24.2139 30.9168 24.1765 30.8059C24.1765 30.732 24.2512 30.6212 24.4007 30.6212C24.5128 30.6581 24.5875 30.732 24.6249 30.8429C24.6623 30.9537 24.5875 30.9537 24.4754 30.9907ZM24.7744 30.3995C24.8117 30.3995 24.8117 30.3995 24.8491 30.3995C24.8491 30.3995 24.8117 30.3995 24.7744 30.3995C24.5875 30.3995 24.2139 30.1409 24.027 30.6951C24.027 29.4388 24.5875 30.2886 24.7744 30.3995ZM23.8028 27.4806C23.9523 27.4806 24.027 27.5545 24.027 27.7023C24.027 27.887 23.9523 28.0718 23.7655 28.0348C23.6534 28.0348 23.4665 27.887 23.4665 27.7762C23.4292 27.5545 23.6534 27.5545 23.8028 27.4806ZM18.6836 14.1425C18.6088 14.1425 18.4594 14.1425 18.4967 14.0316C18.5715 13.8469 18.6836 13.6991 18.833 13.5513C18.833 13.5513 18.9825 13.6252 19.0572 13.6622C18.9078 13.8838 18.9451 14.1425 18.6836 14.1425ZM21.8224 12.2951C21.6729 12.332 21.5982 12.2581 21.7103 12.1104C21.7476 12.0734 21.785 11.9995 21.8971 11.8148C21.8224 12.0734 21.8597 12.2581 21.8224 12.2951ZM41.6642 5.60755C41.5895 5.6445 41.4774 5.60755 41.3653 5.5706C41.4027 5.42281 41.44 5.23807 41.6642 5.12723C41.5895 5.31197 41.8885 5.45976 41.6642 5.60755Z" fill="white"/>
<path d="M50.9685 37.2718H52.5379V46.989C53.0611 45.9545 54.2195 44.6244 56.3867 44.6244C60.2729 44.6244 60.3476 48.393 60.3476 49.1689V56.4107H58.7782V49.3906C58.7782 48.0235 58.6288 45.8806 56.1999 45.8806C54.07 45.8806 52.5379 47.8758 52.5379 50.499V56.4107H50.9685V37.2718Z" fill="white"/>
<path d="M63.8976 45.1416L68.1948 54.7111L71.8567 45.1416H73.4635L66.7001 61.9159H64.9812L67.3353 56.3368L62.0666 45.1416H63.8976Z" fill="white"/>
<path d="M80.6379 44.6613C82.4689 44.6613 83.5151 45.8067 83.8141 47.026C85.0472 44.7721 86.9155 44.6613 87.8123 44.6613C91.2875 44.6613 91.3248 48.0974 91.3248 48.9842V56.4476H89.7554V48.9842C89.7554 47.9866 89.606 45.9175 87.476 45.9175C85.6451 45.9175 84.0383 47.5802 84.0383 50.3882V56.4476H82.4689V49.0581C82.4689 47.8388 82.2447 45.9175 80.2642 45.9175C78.209 45.9175 76.7891 48.1713 76.7891 50.3882V56.4476H75.2197V45.1416H76.7891V47.0999C77.9848 44.9569 79.4795 44.6613 80.6379 44.6613Z" fill="white"/>
<path d="M96.2573 37.2718V46.9521C97.4904 44.883 99.4335 44.6613 100.405 44.6613C103.918 44.6613 106.309 47.1368 106.309 50.7946C106.309 54.2308 104.067 56.928 100.442 56.928C98.4246 56.928 96.9299 55.8934 96.1078 54.5263V56.4476H94.6505V37.3087H96.2573V37.2718ZM104.627 50.7946C104.627 48.5408 103.432 45.9175 100.256 45.9175C97.7893 45.9175 96.1452 48.1344 96.1452 50.7946C96.1452 53.9721 98.2377 55.6717 100.48 55.6717C103.095 55.6717 104.627 53.5288 104.627 50.7946Z" fill="white"/>
<path d="M118.491 45.1416V51.8292C118.491 52.8637 118.379 56.928 113.708 56.928C109.037 56.928 108.925 52.8267 108.925 51.8292V45.1416H110.494V52.0139C110.494 53.4179 110.905 55.6717 113.67 55.6717C116.473 55.6717 116.847 53.4179 116.847 52.0139V45.1416H118.491Z" fill="white"/>
<path d="M121.854 37.2718H123.423V56.4107H121.854V37.2718Z" fill="white"/>
<path d="M136.24 45.1416H137.697V56.4476H136.24V54.5263C135.306 56.1521 133.662 56.928 132.018 56.928C128.393 56.928 126.076 54.2308 126.076 50.7946C126.076 47.2846 128.505 44.6613 132.055 44.6613C133.363 44.6613 135.119 45.0677 136.24 47.1368V45.1416ZM136.24 50.7946C136.24 48.1344 134.596 45.9175 132.092 45.9175C129.589 45.9175 127.758 47.9866 127.758 50.7946C127.758 53.4179 129.402 55.6717 132.018 55.6717C134.446 55.6717 136.24 53.7504 136.24 50.7946Z" fill="white"/>
<path d="M141.098 37.2718H142.667V49.6862L147.786 45.1047H149.954L144.349 49.9818L151 56.4107H148.721L143.228 50.9794L142.705 51.4227V56.4476H141.135V37.2718H141.098Z" fill="white"/>
<path d="M74.7713 66.4605L72.604 61.5095L71.7445 66.1649H70.9225L72.3424 59.034L74.7713 64.7239L77.2001 59.034L78.6201 66.1649H77.798L76.9012 61.5095L74.7713 66.4605Z" fill="white"/>
<path d="M86.2056 62.7657C86.2056 63.246 86.1309 63.7263 85.944 64.1697C85.7572 64.6131 85.4956 64.9826 85.1593 65.3151C84.823 65.6476 84.412 65.9062 83.9636 66.091C83.5152 66.2757 83.0294 66.3496 82.5437 66.3496C82.0579 66.3496 81.5721 66.2757 81.1237 66.091C80.6753 65.9062 80.2643 65.6476 79.928 65.3151C79.5917 64.9826 79.2927 64.5761 79.1059 64.1697C78.9191 63.7263 78.8443 63.283 78.8443 62.8026C78.8443 62.3223 78.9191 61.842 79.1059 61.3986C79.2927 60.9553 79.5543 60.5858 79.928 60.2163C80.2643 59.8838 80.6753 59.6251 81.1237 59.4404C81.5721 59.2557 82.0579 59.1818 82.5437 59.1818C83.0294 59.1818 83.5152 59.2557 83.9636 59.4404C84.412 59.6251 84.823 59.8838 85.1593 60.2163C85.4956 60.5488 85.7946 60.9553 85.944 61.3617C86.1309 61.8051 86.2056 62.2854 86.2056 62.7657ZM82.5063 65.6107C82.88 65.6107 83.2536 65.5368 83.5899 65.389C83.9262 65.2412 84.2252 65.0565 84.5241 64.7609C84.7857 64.5022 85.0099 64.1697 85.1593 63.8372C85.3088 63.5046 85.3835 63.1352 85.3835 62.7657C85.3835 62.3962 85.3088 62.0267 85.1593 61.6573C85.0099 61.3247 84.823 60.9922 84.5241 60.7336C84.2625 60.4749 83.9262 60.2532 83.5899 60.1055C83.2536 59.9577 82.88 59.8838 82.5063 59.8838C82.1326 59.8838 81.7589 59.9577 81.4226 60.1055C81.0863 60.2532 80.7874 60.438 80.4885 60.7336C80.2269 60.9922 80.0027 61.3247 79.8532 61.6573C79.7038 61.9898 79.629 62.3593 79.629 62.7657C79.629 63.1352 79.7038 63.5046 79.8532 63.8372C80.0027 64.1697 80.1895 64.4653 80.4885 64.7609C80.75 65.0195 81.0863 65.2412 81.4226 65.389C81.7589 65.5368 82.1326 65.6107 82.5063 65.6107Z" fill="white"/>
<path d="M86.9903 59.3296H87.8123V63.6155C87.8123 64.3175 87.9618 64.8348 88.2607 65.1303C88.5597 65.4629 89.0454 65.6107 89.6807 65.6107C90.3159 65.6107 90.8017 65.4629 91.1006 65.1303C91.3996 64.7978 91.549 64.2805 91.549 63.6155V59.3296H92.3711V63.6155C92.3711 64.5392 92.1469 65.2412 91.6985 65.6846C91.2501 66.1279 90.5775 66.3866 89.6807 66.3866C88.7839 66.3866 88.1113 66.1649 87.6629 65.6846C87.2145 65.2412 86.9903 64.5392 86.9903 63.6155V59.3296Z" fill="white"/>
<path d="M93.4547 59.0709L98.5366 64.5761V59.3665H99.3213V66.4974L94.2394 61.0661V66.2388H93.4547V59.0709Z" fill="white"/>
<path d="M101.638 66.2018V60.1055H99.6576V59.3296H104.403V60.1055H102.46V66.2018H101.638Z" fill="white"/>
<path d="M106.309 59.0709L109.485 66.2018H108.588L107.692 64.0958H104.964L104.067 66.2018H103.133L106.309 59.0709ZM106.309 60.8444L105.188 63.3569H107.393L106.309 60.8444Z" fill="white"/>
<path d="M109.635 66.2018V59.3296H110.457V66.2018H109.635Z" fill="white"/>
<path d="M111.578 59.0709L116.66 64.5761V59.3665H117.444V66.4974L112.362 61.0661V66.2388H111.578V59.0709Z" fill="white"/>
<path d="M120.845 66.2018V59.3296H122.489C122.937 59.3296 123.311 59.3665 123.498 59.4035C123.722 59.4404 123.909 59.5512 124.058 59.6621C124.245 59.8099 124.432 60.0316 124.544 60.2902C124.656 60.5488 124.731 60.8444 124.731 61.1769C124.731 61.7312 124.581 62.1745 124.245 62.4701C123.909 62.7657 123.46 62.9135 122.863 62.9135H122.713L125.366 66.2018H124.32L121.779 62.9135H121.667V66.2018H120.845ZM121.667 60.0316V62.3223H122.302C122.937 62.3223 123.386 62.2484 123.61 62.0637C123.834 61.9159 123.946 61.6203 123.946 61.2139C123.946 60.7705 123.834 60.4749 123.61 60.2902C123.386 60.1055 122.975 60.0316 122.339 60.0316H121.667Z" fill="white"/>
<path d="M125.516 66.2018V59.3296H129.178V60.0685H126.338V62.0267H129.178V62.8026H126.338V65.4259H129.178V66.2018H125.516Z" fill="white"/>
<path d="M132.541 62.3962C132.989 62.581 133.325 62.8396 133.549 63.1721C133.774 63.5047 133.886 63.8741 133.886 64.2805C133.886 64.9087 133.699 65.4259 133.288 65.7954C132.877 66.1649 132.354 66.3866 131.681 66.3866C131.121 66.3866 130.672 66.2388 130.299 65.9801C129.925 65.7215 129.663 65.3151 129.551 64.7978L130.299 64.4283C130.411 64.8348 130.56 65.1673 130.784 65.389C131.009 65.6107 131.307 65.7215 131.644 65.7215C132.055 65.7215 132.391 65.6107 132.653 65.352C132.914 65.1303 133.026 64.7978 133.026 64.4283C133.026 64.1328 132.952 63.8372 132.765 63.6155C132.578 63.3938 132.316 63.2091 131.943 63.0243L131.083 62.6549C130.635 62.4701 130.261 62.2115 130.037 61.9159C129.813 61.6203 129.701 61.2508 129.701 60.8444C129.701 60.3641 129.888 59.9577 130.261 59.6251C130.635 59.2926 131.083 59.1448 131.681 59.1448C132.092 59.1448 132.466 59.2187 132.765 59.4034C133.064 59.5882 133.325 59.8468 133.475 60.1793L132.802 60.6227C132.653 60.3641 132.466 60.1424 132.279 60.0316C132.092 59.8838 131.868 59.8468 131.606 59.8468C131.307 59.8468 131.046 59.9577 130.859 60.1424C130.672 60.3271 130.56 60.5858 130.56 60.8444C130.56 61.103 130.635 61.2878 130.784 61.4725C130.934 61.6573 131.158 61.805 131.494 61.9528L132.541 62.3962Z" fill="white"/>
<path d="M141.583 62.7657C141.583 63.246 141.509 63.7263 141.322 64.1697C141.135 64.6131 140.873 64.9826 140.537 65.3151C140.201 65.6476 139.79 65.9062 139.341 66.091C138.893 66.2757 138.407 66.3496 137.921 66.3496C137.436 66.3496 136.95 66.2757 136.501 66.091C136.053 65.9062 135.642 65.6476 135.306 65.3151C134.969 64.9826 134.671 64.5761 134.484 64.1697C134.297 63.7263 134.222 63.283 134.222 62.8026C134.222 62.3223 134.297 61.842 134.484 61.3986C134.671 60.9553 134.932 60.5858 135.306 60.2163C135.642 59.8838 136.053 59.6251 136.501 59.4404C136.95 59.2557 137.436 59.1818 137.921 59.1818C138.407 59.1818 138.893 59.2557 139.341 59.4404C139.79 59.6251 140.201 59.8838 140.537 60.2163C140.873 60.5488 141.172 60.9553 141.322 61.3617C141.471 61.8051 141.583 62.2854 141.583 62.7657ZM137.847 65.6107C138.22 65.6107 138.594 65.5368 138.93 65.389C139.267 65.2412 139.566 65.0565 139.865 64.7609C140.126 64.5022 140.35 64.1697 140.5 63.8372C140.649 63.5046 140.724 63.1352 140.724 62.7657C140.724 62.3962 140.649 62.0267 140.5 61.6573C140.35 61.3247 140.163 60.9922 139.865 60.7336C139.603 60.4749 139.267 60.2532 138.93 60.1055C138.594 59.9577 138.22 59.8838 137.847 59.8838C137.473 59.8838 137.099 59.9577 136.763 60.1055C136.427 60.2532 136.128 60.438 135.829 60.7336C135.567 60.9922 135.343 61.3247 135.194 61.6573C135.044 61.9898 134.969 62.3593 134.969 62.7657C134.969 63.1352 135.044 63.5046 135.194 63.8372C135.343 64.1697 135.53 64.4653 135.829 64.7609C136.09 65.0195 136.427 65.2412 136.763 65.389C137.099 65.5368 137.473 65.6107 137.847 65.6107Z" fill="white"/>
<path d="M142.368 66.2018V59.3296H144.012C144.461 59.3296 144.834 59.3665 145.021 59.4035C145.245 59.4404 145.432 59.5512 145.582 59.6621C145.769 59.8099 145.955 60.0316 146.068 60.2902C146.18 60.5488 146.254 60.8444 146.254 61.1769C146.254 61.7312 146.105 62.1745 145.769 62.4701C145.432 62.7657 144.984 62.9135 144.386 62.9135H144.237L146.89 66.2018H145.843L143.302 62.9135H143.19V66.2018H142.368ZM143.153 60.0316V62.3223H143.788C144.423 62.3223 144.872 62.2484 145.096 62.0637C145.32 61.9159 145.432 61.6203 145.432 61.2139C145.432 60.7705 145.32 60.4749 145.096 60.2902C144.872 60.1055 144.461 60.0316 143.825 60.0316H143.153Z" fill="white"/>
<path d="M148.235 66.2018V60.1055H146.254V59.3296H151V60.1055H149.057V66.2018H148.235Z" fill="white"/>
</svg>
