<svg width="26" height="24" viewBox="0 0 26 24" fill="none" xmlns="http://www.w3.org/2000/svg">
<path d="M24.9504 11.9668C25.3521 11.5843 25.6359 11.1002 25.7699 10.569C25.9039 10.0379 25.8827 9.48088 25.7087 8.96084C25.5348 8.4408 25.2149 7.97842 24.7853 7.62587C24.3557 7.27333 23.8334 7.04464 23.2773 6.96562L18.6809 6.32146C18.4867 6.29829 18.3013 6.22906 18.141 6.11987C17.9807 6.01067 17.8504 5.86485 17.7616 5.6952L15.7024 1.63344C15.4532 1.14304 15.068 0.730219 14.5904 0.441585C14.1129 0.152951 13.5619 0 12.9997 0C12.4376 0 11.8866 0.152951 11.409 0.441585C10.9314 0.730219 10.5463 1.14304 10.297 1.63344L8.23784 5.6952C8.14899 5.86485 8.01871 6.01067 7.85842 6.11987C7.69814 6.22906 7.51276 6.29829 7.31856 6.32146L2.72215 6.96562C2.16609 7.04464 1.64378 7.27333 1.21415 7.62587C0.784531 7.97842 0.464688 8.4408 0.290713 8.96084C0.116738 9.48088 0.0955529 10.0379 0.229549 10.569C0.363545 11.1002 0.647389 11.5843 1.04906 11.9668L4.37686 15.1249C4.5089 15.2499 4.60922 15.4031 4.66985 15.5724C4.73049 15.7416 4.74978 15.9223 4.72619 16.1001L3.9448 20.5734C3.84872 21.1123 3.90978 21.6666 4.12105 22.1734C4.33233 22.6802 4.68534 23.1192 5.14004 23.4406C5.59474 23.762 6.13291 23.953 6.69348 23.9917C7.25404 24.0305 7.81455 23.9156 8.31138 23.66L12.4298 21.5575C12.5963 21.4698 12.7828 21.4239 12.9721 21.4239C13.1615 21.4239 13.3479 21.4698 13.5145 21.5575L17.6329 23.66C18.067 23.8812 18.5494 23.9978 19.0394 24C19.4794 24.0021 19.9146 23.9105 20.3144 23.7316C20.7142 23.5526 21.0689 23.2907 21.3536 22.9642C21.6383 22.6376 21.8461 22.2544 21.9625 21.8414C22.0788 21.4284 22.1009 20.9956 22.0271 20.5734L21.2733 16.1001C21.2425 15.9174 21.2573 15.7302 21.3165 15.5542C21.3757 15.3783 21.4775 15.2187 21.6134 15.0891L24.9504 11.9668ZM20.354 13.8456C20.0055 14.1781 19.745 14.5877 19.5945 15.0395C19.444 15.4913 19.4081 15.9719 19.4899 16.4401L20.2712 20.9134C20.3155 21.1301 20.2939 21.3547 20.209 21.5597C20.1241 21.7647 19.9797 21.9411 19.7933 22.0674C19.607 22.1937 19.3868 22.2643 19.1599 22.2707C18.9329 22.2771 18.7089 22.2189 18.5154 22.1033L14.397 20.0008C13.9716 19.7837 13.4985 19.6703 13.0181 19.6703C12.5378 19.6703 12.0646 19.7837 11.6392 20.0008L7.48403 22.1033C7.29018 22.2047 7.07083 22.2507 6.85127 22.236C6.63171 22.2213 6.42089 22.1465 6.24312 22.0203C6.06534 21.894 5.92785 21.7215 5.84651 21.5224C5.76516 21.3234 5.74327 21.1061 5.78336 20.8955L6.56475 16.4222C6.64648 15.954 6.61057 15.4734 6.4601 15.0216C6.30963 14.5698 6.04905 14.1602 5.70062 13.8277L2.37282 10.7321C2.21647 10.5828 2.10604 10.394 2.05397 10.187C2.0019 9.9799 2.01025 9.7628 2.07808 9.5601C2.14592 9.3574 2.27054 9.17715 2.43792 9.03965C2.60531 8.90214 2.80881 8.81283 3.02551 8.78178L7.62192 8.12868C8.10589 8.06219 8.5658 7.8815 8.96157 7.60237C9.35734 7.32324 9.67695 6.95414 9.89255 6.52724L11.9425 2.47442C12.0417 2.2845 12.193 2.125 12.3796 2.01359C12.5662 1.90218 12.7808 1.84321 12.9997 1.84321C13.2186 1.84321 13.4333 1.90218 13.6199 2.01359C13.8065 2.125 13.9577 2.2845 14.0569 2.47442L16.1069 6.52724C16.3327 6.93909 16.6568 7.29218 17.0519 7.55684C17.447 7.8215 17.9016 7.98999 18.3775 8.04816L22.9739 8.70126C23.2088 8.7186 23.4328 8.80412 23.6172 8.94675C23.8015 9.08938 23.9376 9.28256 24.0079 9.5013C24.0782 9.72003 24.0795 9.95427 24.0115 10.1737C23.9435 10.3931 23.8094 10.5877 23.6266 10.7321L20.354 13.8456Z" fill="#4F5864"/>
</svg>
