<svg width="24" height="24" viewBox="0 0 24 24" fill="none" xmlns="http://www.w3.org/2000/svg">
<path d="M21.6 11.0136V3.59742C21.6 1.61369 19.9852 0 18 0H6C4.01484 0 2.4 1.61369 2.4 3.59742V11.0136C1.00605 11.5101 0 12.8287 0 14.3897V22.7837C0 23.4465 0.33399 24 0.996686 24C1.65938 24 1.9556 23.4465 1.9556 22.7837V20.4711H22.0439V22.7837C22.0439 23.4465 22.3579 23.9591 23.0206 23.9591C23.6833 23.9591 24 23.4465 24 22.7837V14.3897C24 12.8287 22.9939 11.5101 21.6 11.0136ZM5.83606 1.89666H18.1679C19.0419 1.89666 19.7925 2.77718 19.7925 3.59742V10.7923H4.26552V3.59742C4.26552 2.77467 5.06385 1.89666 5.83606 1.89666ZM1.9556 18.5962V14.3897C1.9556 13.7281 2.92504 12.8059 3.58656 12.8059H20.4092C21.0707 12.8059 22.0439 13.7281 22.0439 14.3897V18.5962H1.9556Z" fill="#4F5864"/>
</svg>
