<svg width="30" height="30" viewBox="0 0 30 30" fill="none" xmlns="http://www.w3.org/2000/svg">
    <path d="M14.0723 21.5681L14.0716 21.5688L14.0799 21.5743C14.3096 21.7274 14.5423 21.8057 14.7772 21.8057C14.9304 21.8057 15.048 21.7866 15.1569 21.747C15.2651 21.7077 15.3622 21.6491 15.4744 21.5743C15.717 21.4127 15.7943 21.1698 15.7943 20.8636V13.7267C15.7943 13.4114 15.6363 13.1764 15.482 13.0223C15.3206 12.8609 15.0824 12.7846 14.7772 12.7846C14.6239 12.7846 14.5063 12.8038 14.3974 12.8434C14.2893 12.8827 14.1922 12.9413 14.0799 13.016C13.8373 13.1777 13.7601 13.4206 13.7601 13.7267V20.8636C13.7601 21.179 13.9181 21.414 14.0723 21.5681ZM24.9299 5.06761C19.4797 -0.378918 10.521 -0.378918 5.07083 5.06761C-0.379341 10.5142 -0.379341 19.467 5.07083 24.9135C7.8332 27.674 11.4169 29.017 15.0003 29.017C18.5837 29.017 22.1675 27.674 24.9299 24.9135C30.38 19.467 30.38 10.5142 24.9299 5.06761ZM23.8175 23.8021C19.0016 28.6147 11.0733 28.6147 6.2574 23.802C1.44145 18.9892 1.44145 11.0662 6.2574 6.25349C8.70241 3.81011 11.8883 2.62533 15.0747 2.62533C18.2611 2.62533 21.447 3.81008 23.892 6.25338C28.6335 11.066 28.6339 18.9148 23.8175 23.8021ZM16.0174 9.78657C16.0174 9.63371 15.9983 9.49714 15.949 9.36902C15.8996 9.24068 15.8209 9.12342 15.7052 9.00778C15.4694 8.77207 15.1568 8.69577 14.8516 8.69577C14.5478 8.69577 14.2368 8.77133 14.0014 9.00432C13.7596 9.16845 13.6857 9.48691 13.6857 9.78657C13.6857 9.93944 13.7048 10.076 13.7541 10.2041C13.8035 10.3325 13.8822 10.4497 13.9979 10.5654C14.1138 10.6811 14.2315 10.76 14.3698 10.8094C14.5074 10.8585 14.6625 10.8774 14.8516 10.8774C15.0406 10.8774 15.1957 10.8585 15.3333 10.8094C15.4703 10.7605 15.587 10.6827 15.7018 10.5688C15.9435 10.4047 16.0174 10.0862 16.0174 9.78657Z" fill="#4F5864" stroke="white" stroke-width="0.1"/>
</svg>
