<svg width="30" height="26" viewBox="0 0 30 26" fill="none" xmlns="http://www.w3.org/2000/svg">
<path d="M3.02191 16.099C4.41508 21.5475 9.33863 25.4284 14.9992 25.4284C20.6592 25.4284 25.5827 21.5475 26.9765 16.099C28.4487 15.8368 29.5706 14.5402 29.5706 12.9846C29.5706 11.4296 28.4487 10.1323 26.9765 9.87076C25.7231 4.97125 21.6168 1.33996 16.687 0.657945C16.687 0.657945 14.6987 0.513702 13.8216 0.597496C8.6664 1.0925 4.31781 4.80314 3.02178 9.87076C1.54959 10.1323 0.427734 11.4296 0.427734 12.9846C0.42786 14.5402 1.54971 15.8368 3.02191 16.099ZM3.69433 11.7189C4.17629 11.7649 4.6125 11.4352 4.70463 10.9581C5.65914 6.0176 9.98855 2.43233 14.9992 2.43233C20.0099 2.43233 24.3393 6.0176 25.2938 10.9581C25.386 11.4352 25.8234 11.7649 26.3041 11.7189C27.0734 11.6505 27.6904 12.2554 27.6904 12.9846C27.6904 13.7131 27.0741 14.3187 26.3041 14.2503C25.8234 14.2043 25.386 14.534 25.2938 15.0111C24.3393 19.9515 20.0099 23.5374 14.9992 23.5374C9.98793 23.5374 5.65851 19.9515 4.70463 15.0117C4.61657 14.5553 4.20274 14.2067 3.69433 14.2502C2.92502 14.3186 2.308 13.7138 2.308 12.9845C2.30806 12.256 2.92433 11.6505 3.69433 11.7189Z" fill="#4F5864"/>
<path d="M10.444 13.2219C11.03 13.2219 11.8692 13.0252 12.7272 12.1617C13.0938 11.7923 13.0938 11.1941 12.7266 10.8248C12.3593 10.4554 11.7639 10.4554 11.3972 10.8248C11.0544 11.1702 10.7273 11.341 10.4221 11.3303C10.0303 11.3183 9.67122 11.012 9.55528 10.8846C9.05521 10.3432 8.48795 10.3791 8.12075 10.7485C7.75348 11.1179 7.74972 11.7337 8.11699 12.1024C8.61505 12.6967 9.51009 13.2219 10.444 13.2219Z" fill="#4F5864"/>
<path d="M19.5425 13.2219C20.1285 13.2219 20.9677 13.0252 21.8257 12.1617C22.1924 11.7923 22.1924 11.1941 21.8251 10.8248C21.4578 10.4554 20.8624 10.4554 20.4958 10.8248C20.153 11.1702 19.8258 11.341 19.5206 11.3303C19.1289 11.3183 18.7698 11.012 18.6538 10.8846C18.1537 10.3432 17.5865 10.3791 17.2193 10.7485C16.852 11.1179 16.8483 11.7337 17.2155 12.1024C17.7136 12.6967 18.6086 13.2219 19.5425 13.2219Z" fill="#4F5864"/>
</svg>
