<svg width="26" height="26" viewBox="0 0 26 26" fill="none" xmlns="http://www.w3.org/2000/svg">
<path d="M7.64235 25.5276H7.64245H13.0055C14.7929 25.5276 16.5801 25.5278 18.367 25.5283H18.3671C20.8014 25.526 22.8132 23.4924 22.8132 21.0296V21.0191V21.0087V20.9982V20.9878V20.9774V20.9669V20.9565V20.946V20.9356V20.9251V20.9147V20.9042V20.8938V20.8833V20.8729V20.8624V20.852V20.8416V20.8311V20.8207V20.8102V20.7998V20.7893V20.7789V20.7684V20.758V20.7475V20.7371V20.7267V20.7162V20.7058V20.6953V20.6849V20.6744V20.664V20.6535V20.6431V20.6326V20.6222V20.6118V20.6013V20.5909V20.5804V20.57V20.5595V20.5491V20.5386V20.5282V20.5177V20.5073V20.4969V20.4864V20.476V20.4655V20.4551V20.4446V20.4342V20.4237V20.4133V20.4028V20.3924V20.382V20.3715V20.3611V20.3506V20.3402V20.3297V20.3193V20.3088V20.2984V20.2879V20.2775V20.2671V20.2566V20.2462V20.2357V20.2253V20.2148V20.2044V20.1939V20.1835V20.173V20.1626V20.1522V20.1417V20.1313V20.1208V20.1104V20.0999V20.0895V20.079V20.0686V20.0581V20.0477V20.0373V20.0268V20.0164V20.0059V19.9955V19.985V19.9746V19.9641V19.9537V19.9432V19.9328V19.9224V19.9119V19.9015V19.891V19.8806V19.8701V19.8597V19.8492V19.8388V19.8284V19.8179V19.8075V19.797V19.7866V19.7761V19.7657V19.7552V19.7448V19.7343V19.7239V19.7135V19.703V19.6926V19.6821V19.6717V19.6612V19.6508V19.6403V19.6299V19.6194V19.609V19.5986V19.5881V19.5777V19.5672V19.5568V19.5463V19.5359V19.5254V19.515V19.5046V19.4941V19.4837V19.4732V19.4628V19.4523V19.4419V19.4314V19.421V19.4105V19.4001V19.3897V19.3792V19.3688V19.3583V19.3479V19.3374V19.327V19.3165V19.3061V19.2957V19.2852V19.2748V19.2643V19.2539V19.2434V19.233V19.2225V19.2121V19.2017V19.1912V19.1808V19.1703V19.1599V19.1494V19.139V19.1285V19.1181V19.1076V19.0972V19.0868V19.0763V19.0659V19.0554V19.045V19.0345V19.0241V19.0136V19.0032V18.9928V18.9823V18.9719V18.9614V18.951V18.9405V18.9301V18.9196V18.9092V18.8988V18.8883V18.8779V18.8674V18.857V18.8465V18.8361V18.8256V18.8152V18.8048V18.7943V18.7839V18.7734V18.763V18.7525V18.7421V18.7316V18.7212V18.7108V18.7003V18.6899V18.6794V18.669V18.6585V18.6481V18.6376V18.6272V18.6167V18.6063V18.5959V18.5854V18.575V18.5645V18.5541V18.5436V18.5332V18.5227V18.5123V18.5019V18.4914V18.481V18.4705V18.4601V18.4496V18.4392V18.4287V18.4183V18.4079V18.3974V18.387V18.3765V18.3661V18.3556V18.3452V18.3348V18.3243V18.3139V18.3034V18.293V18.2825V18.2721V18.2616V18.2512V18.2408V18.2303V18.2199V18.2094V18.199V18.1885V18.1781V18.1676V18.1572V18.1468V18.1363V18.1259V18.1154V18.105V18.0945V18.0841V18.0736V18.0632V18.0528V18.0423V18.0319V18.0214V18.011V18.0005V17.9901V17.9796V17.9692V17.9588V17.9483V17.9379V17.9274V17.917V17.9065V17.8961V17.8856V17.8752V17.8648V17.8543V17.8439V17.8334V17.823V17.8125V17.8021V17.7917V17.7812V17.7708V17.7603V17.7499V17.7394V17.729V17.7185V17.7081V17.6977V17.6872V17.6768V17.6663V17.6559V17.6454V17.635V17.6245V17.6141V17.6037V17.5932V17.5828V17.5723V17.5619V17.5514V17.541V17.5306V17.5201V17.5097V17.4992V17.4888V17.4783V17.4679V17.4574V17.447V17.4366V17.4261V17.4157V17.4052V17.3948V17.3843V17.3739V17.3635V17.353V17.3426V17.3321V17.3217V17.3112V17.3008V17.2903V17.2799V17.2695V17.259V17.2486V17.2381V17.2277V17.2172V17.2068V17.1964V17.1859V17.1755V17.165V17.1546V17.1441V17.1337V17.1232V17.1128V17.1024V17.0919V17.0815V17.071V17.0606V17.0501V17.0397V17.0293V17.0188V17.0084V16.9979V16.9875V16.977V16.9666V16.9561V16.9457V16.9353V16.9248V16.9144V16.9039V16.8935V16.883V16.8726V16.8622V16.8517V16.8413V16.8308V16.8204V16.8099V16.7995V16.7891V16.7786V16.7682V16.7577V16.7473V16.7368V16.7264V16.7159V16.7055V16.6951V16.6846V16.6742V16.6637V16.6533V16.6428V16.6324V16.622V16.6115V16.6011V16.5906V16.5802V16.5697V16.5593V16.5489V16.5384V16.528V16.5175V16.5071V16.4966V16.4862V16.4757V16.4653V16.4549V16.4444V16.434V16.4235V16.4131V16.4026V16.3922V16.3818V16.3713V16.3609V16.3504V16.34V16.3295V16.3191V16.3087V16.2982V16.2878V16.2773V16.2669V16.2564V16.246V16.2356V16.2251V16.2147V16.2042V16.1938V16.1833V16.1729V16.1625V16.152V16.1416V16.1311V16.1207V16.1102V16.0998V16.0893V16.0789V16.0685V16.058V16.0476V16.0371V16.0267V16.0162V16.0058V15.9954V15.9849V15.9745V15.964V15.9536V15.9431V15.9327V15.9223V15.9118V15.9014V15.8909V15.8805V15.87V15.8596V15.8492V15.8387V15.8283V15.8178V15.8074V15.7969V15.7865V15.7761V15.7656V15.7552V15.7447V15.7343V15.7238V15.7134V15.703V15.6925V15.6826C22.8178 15.5586 22.8072 15.4345 22.7815 15.3132L22.7813 15.3124C22.7274 15.0938 22.5973 14.9024 22.4152 14.774C22.233 14.6456 22.0111 14.5888 21.7908 14.6145L21.7907 14.6145C21.3189 14.6712 20.9847 15.0655 20.9847 15.5817V15.5922V15.6027V15.6132V15.6237V15.6342V15.6447V15.6552V15.6657V15.6762V15.6867V15.6972V15.7077V15.7182V15.7287V15.7392V15.7497V15.7603V15.7708V15.7813V15.7918V15.8023V15.8128V15.8233V15.8338V15.8443V15.8548V15.8653V15.8758V15.8863V15.8968V15.9073V15.9178V15.9283V15.9388V15.9493V15.9598V15.9703V15.9808V15.9913V16.0018V16.0123V16.0228V16.0333V16.0438V16.0543V16.0648V16.0753V16.0858V16.0963V16.1068V16.1173V16.1278V16.1383V16.1488V16.1593V16.1698V16.1803V16.1908V16.2013V16.2118V16.2223V16.2328V16.2433V16.2538V16.2643V16.2748V16.2853V16.2958V16.3063V16.3168V16.3273V16.3378V16.3483V16.3588V16.3693V16.3798V16.3903V16.4008V16.4113V16.4218V16.4323V16.4428V16.4533V16.4638V16.4743V16.4848V16.4953V16.5058V16.5163V16.5268V16.5373V16.5478V16.5583V16.5688V16.5793V16.5898V16.6003V16.6108V16.6213V16.6318V16.6423V16.6528V16.6633V16.6738V16.6844V16.6949V16.7054V16.7159V16.7264V16.7369V16.7474V16.7579V16.7684V16.7789V16.7894V16.7999V16.8104V16.8209V16.8314V16.8419V16.8524V16.8629V16.8734V16.8839V16.8944V16.9049V16.9154V16.9259V16.9364V16.9469V16.9574V16.9679V16.9784V16.9889V16.9994V17.0099V17.0204V17.0309V17.0414V17.0519V17.0624V17.0729V17.0834V17.0939V17.1044V17.1149V17.1254V17.1359V17.1464V17.1569V17.1674V17.1779V17.1884V17.1989V17.2094V17.2199V17.2304V17.2409V17.2514V17.2619V17.2724V17.2829V17.2934V17.3039V17.3144V17.3249V17.3354V17.3459V17.3564V17.3669V17.3774V17.3879V17.3984V17.4089V17.4194V17.4299V17.4404V17.4509V17.4614V17.4719V17.4824V17.4929V17.5034V17.5139V17.5244V17.5349V17.5454V17.5559V17.5664V17.5769V17.5874V17.5979V17.6084V17.6189V17.6294V17.6399V17.6504V17.6609V17.6714V17.6819V17.6924V17.7029V17.7134V17.7239V17.7344V17.7449V17.7554V17.7659V17.7764V17.7869V17.7973V17.8078V17.8183V17.8288V17.8393V17.8498V17.8603V17.8708V17.8813V17.8918V17.9023V17.9128V17.9233V17.9338V17.9443V17.9548V17.9653V17.9758V17.9863V17.9968V18.0073V18.0178V18.0283V18.0388V18.0493V18.0598V18.0703V18.0808V18.0913V18.1018V18.1123V18.1228V18.1333V18.1438V18.1543V18.1648V18.1753V18.1858V18.1963V18.2068V18.2173V18.2278V18.2383V18.2488V18.2593V18.2698V18.2803V18.2908V18.3013V18.3118V18.3223V18.3328V18.3433V18.3538V18.3643V18.3748V18.3853V18.3958V18.4063V18.4168V18.4273V18.4378V18.4483V18.4588V18.4693V18.4798V18.4903V18.5008V18.5113V18.5218V18.5323V18.5428V18.5533V18.5638V18.5743V18.5848V18.5953V18.6058V18.6163V18.6268V18.6373V18.6478V18.6583V18.6688V18.6793V18.6898V18.7003V18.7108V18.7213V18.7318V18.7423V18.7527V18.7632V18.7737V18.7842V18.7947V18.8052V18.8157V18.8262V18.8367V18.8472V18.8577V18.8682V18.8787V18.8892V18.8997V18.9102V18.9207V18.9312V18.9417V18.9522V18.9627V18.9732V18.9837V18.9942V19.0047V19.0152V19.0257V19.0362V19.0467V19.0572V19.0677V19.0782V19.0887V19.0992V19.1097V19.1202V19.1307V19.1412V19.1517V19.1622V19.1727V19.1832V19.1937V19.2042V19.2147V19.2252V19.2357V19.2462V19.2567V19.2672V19.2777V19.2881V19.2986V19.3091V19.3196V19.3301V19.3406V19.3511V19.3616V19.3721V19.3826V19.3931V19.4036V19.4141V19.4246V19.4351V19.4456V19.4561V19.4666V19.4771V19.4876V19.4981V19.5086V19.5191V19.5296V19.5401V19.5506V19.5611V19.5716V19.5821V19.5926V19.6031V19.6136V19.6241V19.6346V19.6451V19.6556V19.6661V19.6766V19.6871V19.6976V19.708V19.7185V19.729V19.7395V19.75V19.7605V19.771V19.7815V19.792V19.8025V19.813V19.8235V19.834V19.8445V19.855V19.8655V19.876V19.8865V19.897V19.9075V19.918V19.9285V19.939V19.9495V19.96V19.9705V19.981V19.9915V20.002V20.0125V20.023V20.0335V20.044V20.0545V20.065V20.0754V20.0859V20.0964V20.1069V20.1174V20.1279V20.1384V20.1489V20.1594V20.1699V20.1804V20.1909V20.2014V20.2119V20.2224V20.2329V20.2434V20.2539V20.2644V20.2749V20.2854V20.2959V20.3064V20.3169V20.3274V20.3379V20.3484V20.3589V20.3694V20.3799V20.3904V20.4008V20.4113V20.4218V20.4323V20.4428V20.4533V20.4638V20.4743V20.4848V20.4953V20.5058V20.5163V20.5268V20.5373V20.5478V20.5583V20.5688V20.5793V20.5898V20.6003V20.6108V20.6213V20.6318V20.6423V20.6528V20.6633V20.6738V20.6842V20.6947V20.7052V20.7157V20.7262V20.7367V20.7472V20.7577V20.7682V20.7787V20.7892V20.7997V20.8102V20.8207V20.8312V20.8417V20.8522V20.8627V20.8732V20.8837V20.8942V20.9047V20.9152V20.9257V20.9362V20.9467V20.9571C20.9847 22.4889 19.8165 23.6666 18.3107 23.6666H18.29H18.2693H18.2485H18.2278H18.2071H18.1863H18.1656H18.1449H18.1241H18.1034H18.0827H18.0619H18.0412H18.0205H17.9997H17.979H17.9583H17.9375H17.9168H17.8961H17.8753H17.8546H17.8339H17.8131H17.7924H17.7717H17.7509H17.7302H17.7095H17.6887H17.668H17.6473H17.6266H17.6058H17.5851H17.5644H17.5436H17.5229H17.5022H17.4814H17.4607H17.44H17.4192H17.3985H17.3778H17.357H17.3363H17.3156H17.2948H17.2741H17.2534H17.2326H17.2119H17.1912H17.1704H17.1497H17.129H17.1082H17.0875H17.0668H17.046H17.0253H17.0046H16.9838H16.9631H16.9424H16.9216H16.9009H16.8802H16.8594H16.8387H16.818H16.7972H16.7765H16.7558H16.7351H16.7143H16.6936H16.6729H16.6521H16.6314H16.6107H16.5899H16.5692H16.5485H16.5277H16.507H16.4863H16.4655H16.4448H16.4241H16.4033H16.3826H16.3619H16.3411H16.3204H16.2997H16.2789H16.2582H16.2375H16.2167H16.196H16.1753H16.1545H16.1338H16.1131H16.0923H16.0716H16.0509H16.0301H16.0094H15.9887H15.9679H15.9472H15.9265H15.9057H15.885H15.8643H15.8435H15.8228H15.8021H15.7813H15.7606H15.7399H15.7191H15.6984H15.6777H15.6569H15.6362H15.6155H15.5947H15.574H15.5533H15.5325H15.5118H15.4911H15.4703H15.4496H15.4289H15.4081H15.3874H15.3667H15.3459H15.3252H15.3045H15.2837H15.263H15.2423H15.2215H15.2008H15.1801H15.1594H15.1386H15.1179H15.0972H15.0764H15.0557H15.035H15.0142H14.9935H14.9728H14.952H14.9313H14.9106H14.8898H14.8691H14.8484H14.8276H14.8069H14.7862H14.7654H14.7447H14.724H14.7032H14.6825H14.6618H14.641H14.6203H14.5996H14.5788H14.5581H14.5374H14.5166H14.4959H14.4752H14.4544H14.4337H14.413H14.3922H14.3715H14.3508H14.33H14.3093H14.2886H14.2678H14.2471H14.2264H14.2056H14.1849H14.1642H14.1434H14.1227H14.102H14.0812H14.0605H14.0398H14.019H13.9983H13.9776H13.9568H13.9361H13.9154H13.8946H13.8739H13.8532H13.8324H13.8117H13.791H13.7702H13.7495H13.7288H13.708H13.6873H13.6666H13.6458H13.6251H13.6044H13.5836H13.5629H13.5422H13.5214H13.5007H13.4799H13.4592H13.4385H13.4177H13.397H13.3763H13.3555H13.3348H13.3141H13.2933H13.2726H13.2519H13.2311H13.2104H13.1897H13.1689H13.1482H13.1275H13.1067H13.086H13.0653H13.0445H13.0238H13.0031H12.9823H12.9616H12.9409H12.9201H12.8994H12.8787H12.8579H12.8372H12.8165H12.7957H12.775H12.7543H12.7335H12.7128H12.6921H12.6713H12.6506H12.6299H12.6091H12.5884H12.5677H12.5469H12.5262H12.5055H12.4847H12.464H12.4433H12.4225H12.4018H12.3811H12.3603H12.3396H12.3189H12.2981H12.2774H12.2567H12.2359H12.2152H12.1945H12.1737H12.153H12.1323H12.1115H12.0908H12.0701H12.0493H12.0286H12.0079H11.9871H11.9664H11.9457H11.9249H11.9042H11.8834H11.8627H11.842H11.8212H11.8005H11.7798H11.759H11.7383H11.7176H11.6968H11.6761H11.6554H11.6346H11.6139H11.5932H11.5724H11.5517H11.531H11.5102H11.4895H11.4688H11.448H11.4273H11.4066H11.3858H11.3651H11.3444H11.3236H11.3029H11.2822H11.2614H11.2407H11.22H11.1992H11.1785H11.1578H11.137H11.1163H11.0956H11.0748H11.0541H11.0333H11.0126H10.9919H10.9711H10.9504H10.9297H10.9089H10.8882H10.8675H10.8467H10.826H10.8053H10.7845H10.7638H10.7431H10.7223H10.7016H10.6809H10.6601H10.6394H10.6187H10.5979H10.5772H10.5565H10.5357H10.515H10.4943H10.4735H10.4528H10.4321H10.4113H10.3906H10.3699H10.3491H10.3284H10.3076H10.2869H10.2662H10.2454H10.2247H10.204H10.1832H10.1625H10.1418H10.121H10.1003H10.0796H10.0588H10.0381H10.0174H9.99663H9.97589H9.95516H9.93443H9.91369H9.89296H9.87222H9.85149H9.83075H9.81002H9.78928H9.76855H9.74782H9.72708H9.70635H9.68561H9.66488H9.64414H9.62341H9.60267H9.58194H9.5612H9.54047H9.51973H9.499H9.47826H9.45753H9.4368H9.41606H9.39533H9.37459H9.35386H9.33312H9.31239H9.29165H9.27092H9.25018H9.22945H9.20871H9.18798H9.16724H9.14651H9.12577H9.10504H9.0843H9.06357H9.04284H9.0221H9.00137H8.98063H8.9599H8.93916H8.91843H8.89769H8.87696H8.85622H8.83549H8.81475H8.79402H8.77328H8.75255H8.73181H8.71108H8.69034H8.66961H8.64887H8.62814H8.6074H8.58667H8.56593H8.5452H8.52446H8.50373H8.48299H8.46226H8.44152H8.42079H8.40005H8.37932H8.35858H8.33785H8.31711H8.29638H8.27564H8.25491H8.23417H8.21344H8.1927H8.17197H8.15123H8.1305H8.10976H8.08903H8.06829H8.04756H8.02682H8.00609H7.98535H7.96462H7.94388H7.92315H7.90241H7.88168H7.86094H7.84021H7.81947H7.79874H7.778H7.75727H7.73653H7.7158H7.69506C6.19075 23.6674 5.02261 22.4875 5.02261 20.9564C5.02261 20.5311 5.02312 20.1058 5.02363 19.6804C5.02526 18.3328 5.02688 16.9846 5.01225 15.6373L5.01221 15.6364C5.00049 15.3818 4.91804 15.1358 4.7744 14.9269L4.77432 14.9268C4.55357 14.6096 4.14386 14.5359 3.79134 14.6687C3.61063 14.7351 3.45546 14.8584 3.34825 15.0205C3.24111 15.1826 3.1874 15.375 3.19481 15.5701V15.5803V15.5909V15.6015V15.6121V15.6227V15.6333V15.6439V15.6545V15.6651V15.6758V15.6864V15.697V15.7076V15.7182V15.7288V15.7394V15.75V15.7606V15.7713V15.7819V15.7925V15.8031V15.8137V15.8243V15.8349V15.8455V15.8561V15.8668V15.8774V15.888V15.8986V15.9092V15.9198V15.9304V15.941V15.9516V15.9622V15.9729V15.9835V15.9941V16.0047V16.0153V16.0259V16.0365V16.0471V16.0577V16.0684V16.079V16.0896V16.1002V16.1108V16.1214V16.132V16.1426V16.1532V16.1639V16.1745V16.1851V16.1957V16.2063V16.2169V16.2275V16.2381V16.2487V16.2594V16.27V16.2806V16.2912V16.3018V16.3124V16.323V16.3336V16.3442V16.3549V16.3655V16.3761V16.3867V16.3973V16.4079V16.4185V16.4291V16.4397V16.4503V16.461V16.4716V16.4822V16.4928V16.5034V16.514V16.5246V16.5352V16.5458V16.5565V16.5671V16.5777V16.5883V16.5989V16.6095V16.6201V16.6307V16.6413V16.652V16.6626V16.6732V16.6838V16.6944V16.705V16.7156V16.7262V16.7368V16.7475V16.7581V16.7687V16.7793V16.7899V16.8005V16.8111V16.8217V16.8323V16.843V16.8536V16.8642V16.8748V16.8854V16.896V16.9066V16.9172V16.9278V16.9384V16.9491V16.9597V16.9703V16.9809V16.9915V17.0021V17.0127V17.0233V17.0339V17.0446V17.0552V17.0658V17.0764V17.087V17.0976V17.1082V17.1188V17.1294V17.1401V17.1507V17.1613V17.1719V17.1825V17.1931V17.2037V17.2143V17.2249V17.2356V17.2462V17.2568V17.2674V17.278V17.2886V17.2992V17.3098V17.3204V17.3311V17.3417V17.3523V17.3629V17.3735V17.3841V17.3947V17.4053V17.4159V17.4266V17.4372V17.4478V17.4584V17.469V17.4796V17.4902V17.5008V17.5114V17.522V17.5327V17.5433V17.5539V17.5645V17.5751V17.5857V17.5963V17.6069V17.6175V17.6282V17.6388V17.6494V17.66V17.6706V17.6812V17.6918V17.7024V17.713V17.7237V17.7343V17.7449V17.7555V17.7661V17.7767V17.7873V17.7979V17.8085V17.8192V17.8298V17.8404V17.851V17.8616V17.8722V17.8828V17.8934V17.904V17.9147V17.9253V17.9359V17.9465V17.9571V17.9677V17.9783V17.9889V17.9995V18.0101V18.0208V18.0314V18.042V18.0526V18.0632V18.0738V18.0844V18.095V18.1056V18.1163V18.1269V18.1375V18.1481V18.1587V18.1693V18.1799V18.1905V18.2011V18.2118V18.2224V18.233V18.2436V18.2542V18.2648V18.2754V18.286V18.2966V18.3073V18.3179V18.3285V18.3391V18.3497V18.3603V18.3709V18.3815V18.3921V18.4028V18.4134V18.424V18.4346V18.4452V18.4558V18.4664V18.477V18.4876V18.4983V18.5089V18.5195V18.5301V18.5407V18.5513V18.5619V18.5725V18.5831V18.5937V18.6044V18.615V18.6256V18.6362V18.6468V18.6574V18.668V18.6786V18.6892V18.6999V18.7105V18.7211V18.7317V18.7423V18.7529V18.7635V18.7741V18.7847V18.7954V18.806V18.8166V18.8272V18.8378V18.8484V18.859V18.8696V18.8802V18.8909V18.9015V18.9121V18.9227V18.9333V18.9439V18.9545V18.9651V18.9757V18.9864V18.997V19.0076V19.0182V19.0288V19.0394V19.05V19.0606V19.0712V19.0819V19.0925V19.1031V19.1137V19.1243V19.1349V19.1455V19.1561V19.1667V19.1773V19.188V19.1986V19.2092V19.2198V19.2304V19.241V19.2516V19.2622V19.2728V19.2835V19.2941V19.3047V19.3153V19.3259V19.3365V19.3471V19.3577V19.3683V19.379V19.3896V19.4002V19.4108V19.4214V19.432V19.4426V19.4532V19.4638V19.4745V19.4851V19.4957V19.5063V19.5169V19.5275V19.5381V19.5487V19.5593V19.57V19.5806V19.5912V19.6018V19.6124V19.623V19.6336V19.6442L3.19481 21.0024L3.19481 21.0025C3.19992 22.2014 3.67012 23.3498 4.50313 24.1974C5.33615 25.045 6.46449 25.5232 7.64235 25.5276ZM12.7847 2.94419C12.8504 2.8665 12.9111 2.78466 12.9664 2.69919C13.0367 2.76847 13.0835 2.81142 13.1227 2.8474C13.1408 2.864 13.1573 2.87911 13.1737 2.89464C13.1738 2.89474 13.1739 2.89484 13.174 2.89494L20.5496 10.3726L20.5497 10.3727C21.667 11.5035 22.7829 12.6372 23.8974 13.7736C24.0305 13.91 24.1737 14.0125 24.3321 14.0675C24.4909 14.1226 24.6635 14.1294 24.8541 14.0765L24.8541 14.0765C25.2186 13.9744 25.4456 13.7105 25.5091 13.3987C25.5725 13.0874 25.4723 12.731 25.1888 12.4433L25.171 12.4608L25.1888 12.4433C21.3818 8.58413 17.574 4.72575 13.7655 0.868122C13.5069 0.604941 13.2566 0.470613 13.0024 0.472082C12.7484 0.47355 12.4974 0.610676 12.2375 0.874109L0.852071 12.4071L0.868832 12.4236L0.852067 12.4071C0.841184 12.4181 0.830156 12.4291 0.81907 12.4402C0.777067 12.4823 0.734243 12.5252 0.695342 12.5713C0.594481 12.6887 0.524518 12.8299 0.491906 12.9819C0.459286 13.134 0.465087 13.292 0.508772 13.4412C0.552457 13.5903 0.632621 13.726 0.741863 13.8355C0.851063 13.9449 0.985781 14.0247 1.13355 14.0673C1.34185 14.1307 1.52609 14.1186 1.69445 14.0534C1.86219 13.9883 2.01277 13.871 2.15535 13.7261C5.69904 10.1339 9.24173 6.54037 12.7834 2.9456L12.7835 2.94565L12.7847 2.94419Z" fill="#4F5864" stroke="#4F5864" stroke-width="0.05"/>
</svg>
