<svg width="28" height="28" viewBox="0 0 28 28" fill="none" xmlns="http://www.w3.org/2000/svg">
<path d="M11.4929 16.432H11.4179V16.507V19.73C11.4179 20.2816 10.9701 20.7293 10.4185 20.7293C9.86691 20.7293 9.41918 20.2816 9.41918 19.73V8.27032C9.41918 7.71871 9.86691 7.27098 10.4185 7.27098V7.19598L10.4186 7.27098H10.4186H10.4188H10.419H10.4193H10.4196H10.42H10.4205H10.421H10.4215H10.4222H10.4229H10.4236H10.4244H10.4253H10.4262H10.4272H10.4282H10.4293H10.4305H10.4317H10.433H10.4343H10.4357H10.4372H10.4387H10.4402H10.4419H10.4435H10.4453H10.4471H10.4489H10.4508H10.4528H10.4548H10.4569H10.459H10.4612H10.4634H10.4657H10.4681H10.4705H10.4729H10.4755H10.478H10.4807H10.4833H10.4861H10.4889H10.4917H10.4946H10.4976H10.5006H10.5036H10.5068H10.5099H10.5131H10.5164H10.5198H10.5231H10.5266H10.5301H10.5336H10.5372H10.5408H10.5445H10.5483H10.5521H10.5559H10.5598H10.5638H10.5678H10.5719H10.576H10.5801H10.5843H10.5886H10.5929H10.5973H10.6017H10.6061H10.6107H10.6152H10.6198H10.6245H10.6292H10.634H10.6388H10.6436H10.6486H10.6535H10.6585H10.6636H10.6687H10.6738H10.679H10.6843H10.6896H10.6949H10.7003H10.7058H10.7112H10.7168H10.7224H10.728H10.7337H10.7394H10.7452H10.751H10.7568H10.7627H10.7687H10.7747H10.7807H10.7868H10.793H10.7992H10.8054H10.8117H10.818H10.8243H10.8307H10.8372H10.8437H10.8502H10.8568H10.8635H10.8701H10.8768H10.8836H10.8904H10.8973H10.9042H10.9111H10.9181H10.9251H10.9322H10.9393H10.9464H10.9536H10.9608H10.9681H10.9754H10.9828H10.9902H10.9976H11.0051H11.0127H11.0202H11.0278H11.0355H11.0432H11.0509H11.0587H11.0665H11.0743H11.0822H11.0902H11.0981H11.1062H11.1142H11.1223H11.1304H11.1386H11.1468H11.1551H11.1633H11.1717H11.18H11.1884H11.1969H11.2054H11.2139H11.2224H11.231H11.2397H11.2483H11.257H11.2658H11.2746H11.2834H11.2922H11.3011H11.3101H11.319H11.328H11.3371H11.3461H11.3552H11.3644H11.3736H11.3828H11.392H11.4013H11.4107H11.42H11.4294H11.4388H11.4483H11.4578H11.4673H11.4769H11.4865H11.4961H11.5058H11.5155H11.5252H11.535H11.5448H11.5546H11.5645H11.5744H11.5843H11.5943H11.6043H11.6143H11.6244H11.6345H11.6446H11.6548H11.665H11.6752H11.6854H11.6957H11.706H11.7164H11.7268H11.7372H11.7476H11.7581H11.7686H11.7791H11.7897H11.8003H11.8109H11.8215H11.8322H11.8429H11.8537H11.8644H11.8752H11.8861H11.8969H11.9078H11.9187H11.9297H11.9406H11.9516H11.9626H11.9737H11.9848H11.9959H12.007H12.0182H12.0294H12.0406H12.0519H12.0631H12.0744H12.0857H12.0971H12.1085H12.1199H12.1313H12.1428H12.1543H12.1658H12.1773H12.1889H12.2004H12.2121H12.2237H12.2353H12.247H12.2587H12.2705H12.2822H12.294H12.3058H12.3177H12.3295H12.3414H12.3533H12.3652H12.3772H12.3891H12.4011H12.4131H12.4252H12.4372H12.4493H12.4614H12.4736H12.4857H12.4979H12.5101H12.5223H12.5345H12.5468H12.5591H12.5714H12.5837H12.5961H12.6084H12.6208H12.6332H12.6457H12.6581H12.6706H12.6831H12.6956H12.7081H12.7206H12.7332H12.7458H12.7584H12.771H12.7837H12.7963H12.809H12.8217H12.8344H12.8472H12.8599H12.8727H12.8855H12.8983H12.9111H12.924H12.9368H12.9497H12.9626H12.9755H12.9884H13.0014H13.0143H13.0273H13.0403H13.0533H13.0664H13.0794H13.0925H13.1055H13.1186H13.1317H13.1448H13.158H13.1711H13.1843H13.1975H13.2107H13.2239H13.2371H13.2503H13.2636H13.2769H13.2901H13.3034H13.3167H13.3301H13.3434H13.3567H13.3701H13.3835H13.3969H13.4103H13.4237H13.4371H13.4505H13.464H13.4774H13.4909H13.5044H13.5179H13.5314H13.5449H13.5584H13.572H13.5855H13.5991H13.6127H13.6262H13.6398H13.6534H13.6671H13.6807H13.6943H13.708H13.7216H13.7353H13.7489H13.7626H13.7763H13.79H13.8037H13.8174H13.8312H13.8449H13.8586H13.8724H13.8861H13.8999H13.9137H13.9275H13.9412H13.955H13.9688H13.9826H13.9965H14.0103H14.0241H14.038H14.0518H14.0656H14.0795H14.0934H14.1072H14.1211H14.135H14.1489H14.1628H14.1767H14.1906H14.2045H14.2184H14.2323H14.2462H14.2601H14.2741H14.288H14.3019H14.3159H14.3298H14.3438H14.3577H14.3717H14.3856H14.3996H14.4135H14.4275H14.4415H14.4555H14.4694H14.4834H14.4974H14.5114H14.5253H14.5393H14.5533H14.5673H14.5813H14.5953H14.6093H14.6233H14.6373H14.6513H14.6653H14.6793H14.6933H14.7072H14.7212H14.7352H14.7492H14.7632H14.7772H14.7912H14.8052H14.8192H14.8332H14.8472H14.8612H14.8752H14.8892H14.9032H14.9171H14.9311H14.9451H14.9591H14.9731H14.987H15.001H15.015H15.0289H15.0429H15.0569H15.0708H15.0848H15.0987H15.1127H15.1266H15.1405H15.1545H15.1684H15.1823H15.1963H15.2102H15.2241H15.238H15.2519H15.2658H15.2797H15.2936H15.3075H15.3213H15.3352H15.3491H15.3629H15.3768H15.3906H15.4045H15.4183H15.4321C16.6471 7.27098 17.8126 7.753 18.6708 8.61267L18.6709 8.61276C19.5306 9.47101 20.0126 10.6365 20.0126 11.8515C20.0126 13.0664 19.5306 14.2319 18.6709 15.0902L18.6708 15.0903C17.8126 15.9499 16.6471 16.432 15.4321 16.432H11.4929ZM11.4179 14.3583V14.4333H11.4929H15.4321C16.1166 14.4333 16.7731 14.1619 17.257 13.6765C17.7425 13.1926 18.0139 12.536 18.0139 11.8515C18.0139 11.167 17.7425 10.5104 17.2571 10.0265C16.7732 9.54109 16.1166 9.26967 15.4321 9.26967H11.4929H11.4179V9.34467V14.3583ZM0.108203 14.0002C0.108203 6.33352 6.33303 0.108691 13.9997 0.108691C21.6663 0.108691 27.8911 6.33352 27.8911 14.0002C27.8911 21.6668 21.6663 27.8916 13.9997 27.8916C6.33303 27.8916 0.108203 21.6668 0.108203 14.0002ZM25.8924 14.0002C25.8924 7.43675 20.5631 2.10738 13.9997 2.10738C7.43627 2.10738 2.10689 7.43675 2.10689 14.0002C2.10689 20.5636 7.43627 25.8929 13.9997 25.8929C20.5631 25.8929 25.8924 20.5636 25.8924 14.0002Z" fill="#4F5864" stroke="white" stroke-width="0.15"/>
</svg>
