<svg width="26" height="26" viewBox="0 0 26 26" fill="none" xmlns="http://www.w3.org/2000/svg">
<path d="M25.1808 10.9066C25.1808 9.84164 24.7972 8.34606 22.9702 7.26754C21.5518 6.43044 19.4942 6.00595 16.8543 6.00595C16.5904 6.00595 16.4333 5.9303 16.3935 5.89536C16.393 5.89109 16.3926 5.88514 16.3926 5.87715C16.3926 5.73497 16.4389 5.66248 16.8623 5.32906C17.3581 4.93858 18.1075 4.34848 18.1075 3.16737C18.1075 2.5191 17.8518 1.65376 16.6335 1.21179C15.8858 0.940816 14.7654 0.819824 13.0006 0.819824C9.66148 0.819824 6.54263 1.96395 4.2185 4.04164C3.17158 4.97742 2.3092 6.0933 1.72432 7.26884C1.13292 8.45757 0.820312 9.71544 0.820312 10.9066C0.820312 13.9704 1.19165 15.5376 1.34368 16.0505V19.9466C1.34368 21.1854 2.25828 22.5191 3.85292 23.6056C5.3 24.5917 7.03013 25.1803 8.48055 25.1803C9.79195 25.1803 10.7818 23.9487 11.7392 22.7575C12.1042 22.3035 12.6987 21.5638 13.0006 21.3941C13.3024 21.5638 13.8969 22.3035 14.262 22.7575C15.2193 23.9487 16.2092 25.1803 17.5206 25.1803C18.971 25.1803 20.7011 24.5917 22.1482 23.6056C23.7428 22.5191 24.6574 21.1854 24.6574 19.9466V16.0505C24.8095 15.5376 25.1808 13.9704 25.1808 10.9066ZM13.0557 2.57763C14.1725 2.57763 14.9499 2.65167 15.5174 2.75612C16.011 2.847 16.1618 3.07686 16.2008 3.10808C16.2025 3.11942 16.2043 3.13856 16.2043 3.16737C16.2043 3.38872 16.2083 3.54041 15.7617 3.89224C15.2857 4.26711 14.6378 4.96117 14.6378 5.89536C14.6378 6.91579 15.47 7.71248 16.8623 7.71248C20.9446 7.71248 23.5924 8.96905 23.5924 10.8739C23.5924 11.5156 23.5087 12.3897 23.4802 12.8894C22.8387 12.2763 21.7678 11.5705 20.8377 11.4078C18.785 11.049 15.759 10.6211 13.0006 10.6211C10.2421 10.6211 7.21617 11.049 5.16339 11.4078C4.23337 11.5705 3.34298 12.2186 2.70141 12.8317C2.67297 12.3319 2.62797 11.5484 2.62797 10.9066C2.62797 7.03577 6.9992 2.57763 13.0557 2.57763ZM22.9702 20.139C22.9702 20.6085 22.2397 21.5433 21.0807 22.333C19.9542 23.1006 18.5876 23.533 17.5206 23.533C17.5005 23.533 17.2527 23.2868 16.8306 22.8948C16.4598 22.5506 16.0142 22.1029 15.6332 21.6288C14.7674 20.5517 14.062 19.6291 13.0006 19.6291C11.9391 19.6291 11.0985 20.6831 10.2327 21.7601C9.85173 22.2342 9.61957 22.5506 9.24879 22.8948C8.82671 23.2868 8.50062 23.6056 8.48055 23.6056C7.41355 23.6056 6.00257 22.9656 4.8761 22.198C3.7171 21.4083 3.09209 20.4161 3.09209 19.9466V15.9561C3.09209 14.6343 4.20888 13.4417 5.50932 13.2144C6.1955 13.0943 7.01572 12.9477 7.87493 12.8317L10.8667 12.5286C11.592 12.478 12.2932 12.4606 13.0006 12.4606C13.1524 12.4606 13.3224 12.4578 13.4759 12.4606L16.0038 12.6165C17.6706 12.7678 19.3011 12.9981 20.5379 13.2144C21.8384 13.4417 22.9702 14.6343 22.9702 15.9561V20.139Z" fill="#4F5864"/>
</svg>
