<svg width="30" height="18" viewBox="0 0 30 18" fill="none" xmlns="http://www.w3.org/2000/svg">
<path d="M28.4761 15.8288H27.3816C26.8446 10.0063 21.9248 5.14227 15.9597 4.61411V2.4938H17.1737C17.8033 2.4938 18.3493 2.12058 18.3493 1.50363C18.3493 0.886674 17.8033 0.57133 17.1737 0.57133L12.842 0.571289C12.2124 0.571289 11.6568 0.886674 11.6568 1.50363C11.6568 2.12058 12.2124 2.4938 12.842 2.4938H13.9987V4.61411C8.05658 5.14031 3.14691 9.98384 2.60789 15.8288H1.55671C0.927081 15.8288 0.427734 16.1168 0.427734 16.7338C0.427734 17.3507 0.927081 17.5713 1.55671 17.5713H28.459C29.0886 17.5713 29.5706 17.3139 29.5706 16.697C29.5706 16.08 29.1058 15.8288 28.4761 15.8288ZM4.54601 15.8288C5.11397 10.8709 9.24806 6.20555 14.9949 6.18258C20.7672 6.15951 24.9365 10.8709 25.5044 15.8288H4.54601Z" fill="#4F5864"/>
</svg>
