<svg width="30" height="22" viewBox="0 0 30 22" fill="none" xmlns="http://www.w3.org/2000/svg">
<path d="M0.63498 7.39001L0.634994 7.39002L5.53495 9.67122C5.53493 11.9373 5.53326 13.6351 5.53201 14.9089C5.53058 16.3609 5.5297 17.262 5.53241 17.8258C5.53495 18.3551 5.54063 18.5914 5.55257 18.7074C5.55858 18.7659 5.56685 18.8024 5.58186 18.8326C5.58847 18.8459 5.59579 18.8566 5.60063 18.8637L5.60179 18.8654C5.60669 18.8726 5.61047 18.8783 5.61469 18.8865C5.66577 18.9857 6.10762 19.7768 7.53971 20.5189C9.33672 21.4502 11.8751 21.919 15.078 21.919C22.1214 21.919 24.3647 19.1348 24.4701 18.9983L24.4108 18.9525L24.4701 18.9983C24.4806 18.9847 24.4898 18.9745 24.501 18.9615C24.5117 18.949 24.524 18.9343 24.5356 18.916C24.5597 18.8776 24.5757 18.8315 24.5875 18.7602C24.6105 18.6219 24.6212 18.3629 24.626 17.8185C24.6311 17.2378 24.6294 16.3248 24.6266 14.8724C24.6242 13.5993 24.6211 11.9117 24.621 9.67016L24.6299 9.66582L24.7744 9.59523L25.2928 9.34153C25.7234 9.13057 26.3015 8.84685 26.8913 8.55585C27.481 8.26487 28.0825 7.96654 28.56 7.72637C29.0352 7.48737 29.3927 7.30346 29.4898 7.24293C29.7353 7.08978 29.816 6.85759 29.7857 6.64303C29.7561 6.43367 29.6206 6.23984 29.4351 6.15536C28.2496 5.61534 27.884 5.4338 27.5145 5.26049C26.6776 4.86799 25.8209 4.51771 15.3748 0.140666C15.1854 0.0611579 14.9707 0.0611635 14.7812 0.140661L0.662105 6.05673C0.0720334 6.30387 0.0512886 7.11813 0.63498 7.39001ZM7.03761 18.3299V10.3707L14.7541 13.9632L14.7541 13.9632C14.959 14.0585 15.197 14.0585 15.4018 13.9632L15.4018 13.9632L23.1184 10.3707L23.1184 18.2694C22.2853 19.0441 21.0109 19.6042 19.5238 19.965C18.0241 20.3289 16.3154 20.4883 14.6418 20.4641C12.9681 20.4399 11.3323 20.232 9.97834 19.8631C8.63511 19.4971 7.58205 18.9759 7.03761 18.3299ZM27.3788 6.76434L15.078 12.491L2.77723 6.76434L15.078 1.61022L27.3788 6.76434Z" fill="#4F5864" stroke="#4F5864" stroke-width="0.15"/>
</svg>
