<svg width="24" height="24" viewBox="0 0 24 24" fill="none" xmlns="http://www.w3.org/2000/svg">
<path d="M4.62498 12.7117C6.1663 12.7117 7.5238 11.9512 8.36193 10.7865C9.16955 11.9487 10.5095 12.7117 12.0294 12.7117C13.5453 12.7117 14.8842 11.9527 15.6925 10.7956C16.5257 11.9546 17.8837 12.7117 19.417 12.7117C22.3582 12.7117 24.5826 9.86038 23.8641 7.00632L22.4619 1.43708C22.2489 0.590924 21.4901 0 20.6172 0H3.3722C2.49928 0 1.74081 0.590924 1.52777 1.43713L0.134594 6.97319C-0.262886 8.55197 0.259569 9.92777 1.18227 11.1803V22.099C1.18227 23.1472 2.02824 24 3.07699 24H20.9195C21.9682 24 22.8145 23.1472 22.8145 22.099V15.0179C22.8145 14.5586 22.4283 14.1862 21.9687 14.1862C21.5092 14.1862 21.1229 14.5585 21.1229 15.0179V22.0991C21.1229 22.2302 21.0505 22.359 20.9195 22.359H15.6892H15.4334C14.7394 22.359 14.7971 22.359 14.3376 22.359H9.62117C9.16161 22.359 10.2629 22.359 9.01447 22.359H8.30764H3.07699C2.94592 22.359 2.87389 22.2301 2.87389 22.0991V12.3625C3.38651 12.5907 4.00661 12.7117 4.62498 12.7117ZM16.5094 1.64103H20.6172C20.7263 1.64103 20.8211 1.72605 20.8477 1.8318L22.2497 7.40653C22.7055 9.21751 21.2946 11.0455 19.4237 11.0455C17.8124 11.0455 16.5094 9.73725 16.5094 8.12571V1.64103ZM9.23029 1.64103H14.869V8.12571C14.869 9.6913 13.6447 11.0483 12.0465 11.0483C10.4222 11.0483 9.23029 9.67612 9.23029 8.09915V1.64103ZM11.0332 22.359H12.1902H13.9976H9.99921H11.0332ZM1.74707 7.37909L3.14117 1.8319C3.16783 1.72611 3.26312 1.64108 3.3722 1.64108H7.53867V8.0992C7.53867 9.72469 6.22582 11.0472 4.60078 11.0483C2.71011 11.0472 1.28561 9.21228 1.74707 7.37909Z" fill="#4F5864"/>
</svg>
