<svg width="22" height="29" viewBox="0 0 22 29" fill="none" xmlns="http://www.w3.org/2000/svg">
<path fill-rule="evenodd" clip-rule="evenodd" d="M17.0727 11.378H4.92578C3.65553 11.378 2.62578 12.4078 2.62578 13.678V24.2752C2.62578 25.5454 3.65553 26.5752 4.92578 26.5752H17.0727C18.343 26.5752 19.3727 25.5454 19.3727 24.2752V13.678C19.3727 12.4078 18.343 11.378 17.0727 11.378ZM4.92578 9.67804C2.71664 9.67804 0.925781 11.4689 0.925781 13.678V24.2752C0.925781 26.4843 2.71664 28.2752 4.92578 28.2752H17.0727C19.2818 28.2752 21.0727 26.4843 21.0727 24.2752V13.678C21.0727 11.4689 19.2818 9.67804 17.0727 9.67804H4.92578Z" fill="#4F5864"/>
<path fill-rule="evenodd" clip-rule="evenodd" d="M10.9235 10.4507C10.454 10.4507 10.0735 10.0701 10.0735 9.60068L10.0735 4.32675C10.0735 3.85731 10.454 3.47675 10.9235 3.47675C11.3929 3.47675 11.7735 3.85731 11.7735 4.32675L11.7735 9.60068C11.7735 10.0701 11.3929 10.4507 10.9235 10.4507Z" fill="#4F5864"/>
<path fill-rule="evenodd" clip-rule="evenodd" d="M1.47732 5.91772C1.35582 5.46427 1.62491 4.99818 2.07836 4.87668L19.1482 0.302825C19.6017 0.181325 20.0678 0.45042 20.1893 0.903866C20.3108 1.35731 20.0417 1.8234 19.5882 1.9449L2.51835 6.51876C2.06491 6.64026 1.59882 6.37116 1.47732 5.91772Z" fill="#4F5864"/>
</svg>
